<?xml version="1.0" encoding="utf-8"?>
<!-- Generator: Adobe Illustrator 27.8.0, SVG Export Plug-In . SVG Version: 6.00 Build 0)  -->
<svg version="1.1" id="Layer_1" xmlns="http://www.w3.org/2000/svg" xmlns:xlink="http://www.w3.org/1999/xlink" x="0px" y="0px"
	 width="30px" height="30px" viewBox="0 0 30 30" style="enable-background:new 0 0 30 30;" xml:space="preserve">
<style type="text/css">
	.st0{fill:#FFFFFF;}
</style>
<g>
	<path class="st0" d="M15,0.5c2.7,0,5.4,0,8.1,0c3.1,0,5.6,2.1,6.2,5.1c0.1,0.4,0.1,0.7,0.1,1.1c0,5.5,0,10.9,0,16.4
		c0,3.5-2.7,6.3-6.3,6.3c-5.5,0-10.9,0-16.4,0c-3.5,0-6.3-2.8-6.3-6.3c0-5.5,0-10.9,0-16.4c0-3.5,2.7-6.2,6.2-6.3
		C9.5,0.5,12.3,0.5,15,0.5z M18.1,11.9c0,0.2,0,0.3,0,0.4c0,0.9,0,1.8,0,2.7c0,0.6,0.4,1,1,1s1-0.4,1.1-1c0-0.6,0-1.1,0-1.7
		c0-0.5,0-1,0-1.5c0.1,0,0.2,0,0.3,0c0.9,0,1.8,0,2.7,0c0.7,0,1.1-0.4,1.1-1s-0.4-1-1.1-1c-0.9,0-1.8,0-2.7,0c-0.1,0-0.2,0-0.4,0
		c0-0.1,0-0.2,0-0.3c0-0.9,0-1.9,0-2.8c0-0.6-0.4-1-1-1s-1,0.4-1,1c0,0.3,0,0.6,0,1c0,0.7,0,1.4,0,2.2c-0.1,0-0.3,0-0.4,0
		c-0.9,0-1.8,0-2.7,0c-0.7,0-1.1,0.5-1,1.1c0,0.6,0.4,0.9,1.1,0.9C16,11.9,17,11.9,18.1,11.9z"/>
</g>
</svg>
