<?xml version="1.0" encoding="utf-8"?>
<!-- Generator: Adobe Illustrator 27.8.0, SVG Export Plug-In . SVG Version: 6.00 Build 0)  -->
<svg version="1.1" id="Layer_1" xmlns="http://www.w3.org/2000/svg" xmlns:xlink="http://www.w3.org/1999/xlink" x="0px" y="0px"
	 width="30px" height="30px" viewBox="0 0 30 30" style="enable-background:new 0 0 30 30;" xml:space="preserve">
<style type="text/css">
	.st0{fill:#99CC66;}
</style>
<g>
	<path class="st0" d="M13.1,29.1c-3.7,0-7.4,0-11.1,0c-0.8,0-1.1-0.4-1.1-1.1c0.1-5.5,3.9-10.3,9.2-11.7c6.8-1.7,13.5,2.5,15,9.4
		c0.2,0.8,0.2,1.5,0.3,2.3c0,0.7-0.3,1.1-1.1,1.1C20.5,29.1,16.8,29.1,13.1,29.1z"/>
	<path class="st0" d="M13.1,0.9c3.6,0,6.6,2.9,6.6,6.6c0,3.6-3,6.6-6.6,6.6c-3.6,0-6.6-3-6.6-6.6C6.5,3.8,9.5,0.9,13.1,0.9z"/>
	<path class="st0" d="M23.5,15c-0.9,0-1.8,0-2.8,0c-0.4,0-0.7-0.2-0.9-0.5c-0.3-0.6,0.1-1.4,0.8-1.4c0.8,0,1.6,0,2.5,0
		c0.1,0,0.2,0,0.3,0c0-0.6,0-1.1,0-1.6c0-0.4,0-0.8,0-1.1c0-0.6,0.4-1,0.9-1c0.5,0,0.9,0.4,0.9,1c0,0.8,0,1.6,0,2.4
		c0,0.1,0,0.2,0,0.3c0.1,0,0.2,0,0.3,0c0.8,0,1.6,0,2.4,0c0.6,0,1,0.4,1,0.9c0,0.5-0.4,0.9-1,0.9c-0.9,0-1.8,0-2.8,0
		c0,0.1,0,0.2,0,0.3c0,0.5,0,1.1,0,1.6c0,1.4-0.2,1.9-0.9,1.9c-0.7,0-0.9-0.4-0.9-1.9C23.5,16.3,23.5,15.7,23.5,15z"/>
</g>
</svg>
