<?xml version="1.0" encoding="utf-8"?>
<!-- Generator: Adobe Illustrator 27.8.0, SVG Export Plug-In . SVG Version: 6.00 Build 0)  -->
<svg version="1.1" id="Layer_1" xmlns="http://www.w3.org/2000/svg" xmlns:xlink="http://www.w3.org/1999/xlink" x="0px" y="0px"
	 width="30px" height="30px" viewBox="0 0 30 30" style="enable-background:new 0 0 30 30;" xml:space="preserve">
<style type="text/css">
	.st0{fill:#99CC66;}
</style>
<g>
	<path class="st0" d="M21.8,29c-6.5,0-13,0-19.6,0c-0.9-0.4-1.1-0.7-1.1-1.7c0-5.7,0-11.4,0-17.1c0-0.1,0-0.2,0-0.4
		c0.1,0,0.2,0,0.3,0c2.4,0,4.9,0,7.3,0c0.8,0,1.1-0.3,1.1-1.1c0-2.4,0-4.9,0-7.3c0-0.1,0-0.2,0-0.3c0.1,0,0.2,0,0.3,0
		c3.7,0,7.4,0,11.2,0c0.9,0,1.5,0.5,1.5,1.5c0,8.3,0,16.7,0,25c0,0.2,0,0.3,0,0.5C22.7,28.5,22.3,28.8,21.8,29z M12.4,21.5
		c-0.5,0-0.9,0-1.4,0c-0.8,0-1.6,0-2.4,0c-0.7,0-1.1,0.5-1,1.2c0.1,0.5,0.5,0.7,1,0.7c2.2,0,4.3,0,6.5,0c0.3,0,0.7,0,1,0
		c0.5,0,0.9-0.3,1-0.8c0.1-0.6-0.3-1.1-1-1.1C14.9,21.5,13.7,21.5,12.4,21.5z M12.4,14.5c1.3,0,2.5,0,3.8,0c0.7,0,1.1-0.6,0.9-1.2
		c-0.1-0.4-0.5-0.7-1-0.7c-2.5,0-5,0-7.5,0c-0.1,0-0.1,0-0.2,0c-0.4,0-0.7,0.3-0.8,0.7c-0.1,0.7,0.4,1.2,1,1.2
		C9.9,14.5,11.1,14.5,12.4,14.5z M12.4,17.1c-1.3,0-2.5,0-3.8,0c-0.6,0-1,0.4-1,0.9s0.4,1,1,1c2.5,0,5,0,7.6,0
		c0.2,0,0.4-0.1,0.6-0.2c0.3-0.2,0.5-0.7,0.3-1c-0.1-0.4-0.5-0.6-0.9-0.6C15,17.1,13.7,17.1,12.4,17.1z"/>
	<path class="st0" d="M8.1,1c0,2.3,0,4.6,0,6.9c-2.3,0-4.6,0-6.9,0c0-0.3,0.1-0.5,0.2-0.8C1.5,7,1.6,7,1.7,6.9
		C3.4,5.1,5.2,3.3,7,1.5C7.3,1.2,7.6,1,8.1,1z"/>
</g>
<path class="st0" d="M25.6,6.4c-0.7,0-1.3,0-2,0c-0.3,0-0.5-0.1-0.7-0.4c-0.2-0.4,0.1-1,0.6-1c0.6,0,1.2,0,1.8,0c0.1,0,0.1,0,0.2,0
	c0-0.4,0-0.8,0-1.2c0-0.3,0-0.6,0-0.8c0-0.4,0.3-0.7,0.7-0.7c0.4,0,0.7,0.3,0.7,0.7c0,0.6,0,1.2,0,1.7c0,0.1,0,0.1,0,0.2
	c0.1,0,0.1,0,0.2,0c0.6,0,1.2,0,1.7,0c0.4,0,0.7,0.3,0.7,0.7s-0.3,0.7-0.7,0.7c-0.7,0-1.3,0-2,0c0,0.1,0,0.1,0,0.2
	c0,0.4,0,0.8,0,1.2c0,1-0.1,1.4-0.7,1.4c-0.5,0-0.7-0.3-0.7-1.4C25.6,7.3,25.6,6.9,25.6,6.4z"/>
</svg>
