<?xml version="1.0" encoding="utf-8"?>
<!-- Generator: Adobe Illustrator 27.8.0, SVG Export Plug-In . SVG Version: 6.00 Build 0)  -->
<svg version="1.1" id="Layer_1" xmlns="http://www.w3.org/2000/svg" xmlns:xlink="http://www.w3.org/1999/xlink" x="0px" y="0px"
	 width="16px" height="16px" viewBox="0 0 16 16" style="enable-background:new 0 0 16 16;" xml:space="preserve">
<style type="text/css">
	.st0{fill:#99CC66;}
</style>
<path class="st0" d="M12,11.9c2.2,0,3.5-1.9,3.5-4.5V6.9c0-3.6-2.6-6.7-7.3-6.7H8.1c-4.6,0-7.7,3-7.7,7.6v0.5c0,4.8,3.2,7.4,7.4,7.4
	H8c1.3,0,2.3-0.2,2.7-0.4v-1.6c-0.5,0.2-1.5,0.4-2.6,0.4H8c-3,0-5.7-1.7-5.7-5.9V7.9c0-3.7,2.3-6,5.9-6h0.1c3.4,0,5.5,2.3,5.5,5.2
	v0.3c0,2.2-0.7,3.1-1.4,3.1c-0.5,0-0.9-0.3-0.9-0.9V4.5h-2v1.3H9.3C9.1,5.1,8.5,4.4,7.2,4.4c-1.7,0-2.8,1.2-2.8,3.1v1.2
	c0,2,1.1,3.2,2.8,3.2c1,0,2-0.5,2.2-1.4h0.1C9.8,11.4,10.9,11.9,12,11.9z M6.6,8.3V7.8C6.6,6.6,7.1,6,7.9,6c0.7,0,1.3,0.4,1.3,1.6
	v0.8C9.2,9.7,8.6,10,8,10C7.1,10.1,6.6,9.6,6.6,8.3L6.6,8.3z"/>
</svg>
