<?xml version="1.0" encoding="utf-8"?>
<!-- Generator: Adobe Illustrator 27.8.0, SVG Export Plug-In . SVG Version: 6.00 Build 0)  -->
<svg version="1.1" id="Layer_1" xmlns="http://www.w3.org/2000/svg" xmlns:xlink="http://www.w3.org/1999/xlink" x="0px" y="0px"
	 width="35.6px" height="35.5px" viewBox="0 0 35.6 35.5" style="enable-background:new 0 0 35.6 35.5;" xml:space="preserve">
<style type="text/css">
	.st0{fill:#ED1C24;}
	.st1{fill:#FFFFFF;stroke:#FFFFFF;stroke-miterlimit:10;}
</style>
<circle class="st0" cx="17.8" cy="17.8" r="17.5"/>
<g>
	<path class="st1" d="M16,17.6l-5.6-6.3c-0.4-0.5-0.2-1,0.6-1h1.9c0.3,0,0.6,0.1,0.7,0.3l4.2,5.1h0l4.4-5.1c0.1-0.1,0.4-0.3,0.7-0.3
		h1.9c0.8,0,1,0.5,0.6,1l-5.6,6.3l5.7,6.7c0.4,0.5,0.1,1-0.6,1h-1.6c-0.3,0-0.5-0.2-0.7-0.3l-4.7-5.5h0l-4.6,5.5
		c-0.1,0.1-0.4,0.3-0.7,0.3h-1.6c-0.8,0-1-0.5-0.6-1L16,17.6z"/>
</g>
</svg>
