<?xml version="1.0" encoding="utf-8"?>
<!-- Generator: Adobe Illustrator 27.8.0, SVG Export Plug-In . SVG Version: 6.00 Build 0)  -->
<svg version="1.1" id="Layer_1" xmlns="http://www.w3.org/2000/svg" xmlns:xlink="http://www.w3.org/1999/xlink" x="0px" y="0px"
	 width="30px" height="30px" viewBox="0 0 30 30" style="enable-background:new 0 0 30 30;" xml:space="preserve">
<style type="text/css">
	.st0{fill:#99CC66;}
</style>
<g>
	<path class="st0" d="M28.5,3.6c0,2.8,0,5.6,0,8.5c0,0,0,0,0,0.1c-0.3,1.2-1.1,1.8-2.3,1.8c-2.6,0-5.1,0-7.7,0c-0.2,0-0.4,0-0.6,0
		c-1.1-0.2-1.7-1.1-1.7-2.2c0-1.7,0-3.4,0-5.1c0-0.9,0-1.8,0-2.7c0-0.5,0.2-0.9,0.5-1.3C17,2.1,17.5,1.9,18,1.8c2.9,0,5.8,0,8.7,0
		c0.1,0,0.2,0.1,0.3,0.1c0.7,0.2,1.2,0.7,1.5,1.4C28.4,3.4,28.5,3.5,28.5,3.6z"/>
	<path class="st0" d="M28.5,17.9c0,2.8,0,5.6,0,8.5c0,0,0,0,0,0.1c-0.3,1.1-1.1,1.7-2.3,1.7c-2.6,0-5.2,0-7.8,0
		c-1.4,0-2.3-0.9-2.3-2.2c0-2.5,0-5.1,0-7.6c0-1.3,0.9-2.2,2.3-2.2c1.2,0,2.3,0,3.5,0c1.5,0,2.9,0,4.4,0c1.1,0,1.9,0.7,2.2,1.7
		C28.5,17.9,28.5,17.9,28.5,17.9z"/>
	<path class="st0" d="M3.3,1.8c2.9,0,5.8,0,8.7,0c0,0,0,0,0,0c1.2,0.3,1.8,1,1.8,2.3c0,2.5,0,5,0,7.5c0,1.4-0.9,2.3-2.3,2.3
		c-1.5,0-3.1,0-4.6,0c-1.1,0-2.3,0-3.4,0c-1.1,0-2.1-0.9-2.1-2.1c0-2.7,0-5.3,0-8c0-0.8,0.4-1.4,1-1.7C2.8,1.9,3.1,1.9,3.3,1.8z"/>
	<path class="st0" d="M7.7,16.1c1.3,0,2.6,0,3.9,0c1.4,0,2.3,0.9,2.3,2.2c0,2.5,0,5.1,0,7.6c0,1.4-0.9,2.2-2.3,2.2
		c-2.6,0-5.2,0-7.8,0c-1.4,0-2.3-0.9-2.3-2.2c0-2.5,0-5.1,0-7.6c0-1.3,0.9-2.2,2.3-2.2C5.1,16.1,6.4,16.1,7.7,16.1z"/>
</g>
</svg>
