<?xml version="1.0" encoding="utf-8"?>
<!-- Generator: Adobe Illustrator 27.8.0, SVG Export Plug-In . SVG Version: 6.00 Build 0)  -->
<svg version="1.1" id="Layer_1" xmlns="http://www.w3.org/2000/svg" xmlns:xlink="http://www.w3.org/1999/xlink" x="0px" y="0px"
	 width="30px" height="30px" viewBox="0 0 30 30" style="enable-background:new 0 0 30 30;" xml:space="preserve">
<style type="text/css">
	.st0{fill:#99CC66;}
</style>
<g>
	<path class="st0" d="M1.4,6.9c6.8,0,13.7,0,20.5,0c0,0.1,0,0.2,0,0.3c0,1.4,0,2.9,0,4.3c0,0.2-0.1,0.4-0.2,0.5
		c-1.9,1.9-3.8,3.9-5.8,5.8c-0.5,0.5-1,1.1-1.3,1.8c-0.4,0.9-0.9,1.8-1.4,2.8c-0.7,1.5,0.2,3.2,1.8,3.3c0.4,0,0.8-0.1,1.2-0.2
		c1.2-0.5,2.3-1.1,3.5-1.7c0.4-0.2,0.7-0.6,1.1-0.9c0.4-0.3,0.7-0.7,1.1-1.1c0,0.2,0,0.3,0,0.4c0,1.9,0,3.9,0,5.8
		c0,1-0.6,1.5-1.5,1.5c-5.8,0-11.7,0-17.5,0c-0.9,0-1.5-0.6-1.5-1.5c0-6.9,0-13.8,0-20.8C1.4,7.1,1.4,7,1.4,6.9z M10.5,13.1
		c1.6,0,3.2,0,4.8,0c0.5,0,0.7-0.3,0.6-0.7c-0.1-0.3-0.3-0.4-0.7-0.4c-3.1,0-6.2,0-9.4,0c-0.5,0-0.7,0.2-0.7,0.6
		c0,0.4,0.3,0.6,0.8,0.6C7.4,13.1,8.9,13.1,10.5,13.1z M8.5,16.9C8.5,16.9,8.5,16.9,8.5,16.9c-0.9,0-1.9,0-2.8,0
		c-0.4,0-0.6,0.2-0.6,0.6c0,0.3,0.2,0.6,0.6,0.6c0,0,0.1,0,0.1,0c1.8,0,3.6,0,5.4,0c0.5,0,0.7-0.2,0.7-0.6c0-0.4-0.3-0.6-0.7-0.6
		C10.3,16.9,9.4,16.9,8.5,16.9z M7.9,23.1C7.9,23.1,7.9,23.1,7.9,23.1c0.7,0,1.5,0,2.2,0c0.4,0,0.6-0.2,0.6-0.6
		c0-0.3-0.2-0.6-0.6-0.6c-1.5,0-2.9,0-4.4,0c-0.2,0-0.4,0.1-0.5,0.2c-0.1,0.1-0.2,0.4-0.1,0.6c0,0.3,0.3,0.4,0.6,0.4
		C6.4,23.1,7.2,23.1,7.9,23.1z"/>
	<path class="st0" d="M21.9,5.7c-6.9,0-13.7,0-20.5,0c0-0.2,0-0.4,0-0.6c0-1,0-2,0-3c0-1,0.6-1.5,1.6-1.5c2.8,0,5.7,0,8.5,0
		c2.9,0,5.8,0,8.8,0c1.2,0,1.7,0.5,1.7,1.7C21.9,3.4,21.9,4.6,21.9,5.7z"/>
	<path class="st0" d="M22.7,12.7c1.1,1.1,2.2,2.2,3.3,3.3c-0.1,0.1-0.1,0.1-0.2,0.2c-2,2-4,4-6.1,6.1c-0.1,0.1-0.3,0.3-0.5,0.4
		c-1.1,0.6-2.3,1.2-3.4,1.7c-0.8,0.4-1.6-0.1-1.7-0.9c0-0.2,0-0.5,0.1-0.6c0.6-1.1,1.1-2.3,1.7-3.4c0.1-0.2,0.2-0.3,0.3-0.4
		c2.1-2.1,4.2-4.2,6.2-6.2C22.6,12.8,22.6,12.7,22.7,12.7z"/>
	<path class="st0" d="M26.8,15.1c-1.1-1.1-2.2-2.2-3.3-3.3c0.5-0.5,0.9-1,1.5-1.5c0.5-0.4,1.3-0.4,1.8,0.1c0.5,0.5,1,0.9,1.4,1.4
		c0.5,0.5,0.5,1.3,0,1.8C27.8,14.2,27.3,14.6,26.8,15.1z"/>
</g>
</svg>
