<?xml version="1.0" encoding="utf-8"?>
<!-- Generator: Adobe Illustrator 27.8.0, SVG Export Plug-In . SVG Version: 6.00 Build 0)  -->
<svg version="1.1" id="Layer_1" xmlns="http://www.w3.org/2000/svg" xmlns:xlink="http://www.w3.org/1999/xlink" x="0px" y="0px"
	 width="98px" height="96px" viewBox="0 0 98 96" style="enable-background:new 0 0 98 96;" xml:space="preserve">
<style type="text/css">
	.st0{fill:#99CC66;}
</style>
<g>
	<path class="st0" d="M51.8,93.2c-1.9,0-3.8,0-5.7,0c-1.1-0.1-2.2-0.3-3.3-0.4c-9-1.3-17-4.9-23.8-10.9c-7.9-7-12.8-15.6-14.6-26
		c-0.3-1.7-0.5-3.4-0.7-5c0-1.9,0-3.8,0-5.6c0.1-0.3,0.1-0.6,0.2-0.9c0.3-1.9,0.4-3.8,0.8-5.7c2.6-11.8,8.9-21.2,19-28
		c9.9-6.7,20.8-9,32.6-7.2c8.6,1.4,16.2,5,22.7,10.8c7.8,7,12.7,15.6,14.5,25.9c0.3,1.6,0.5,3.3,0.7,5c0,1.9,0,3.8,0,5.6
		c-0.1,1.1-0.3,2.2-0.4,3.3c-1.3,9-4.9,17-11,23.8c-7,7.8-15.6,12.7-26,14.5C55.2,92.8,53.5,92.9,51.8,93.2z M49.1,27.5
		c-7.7,0-15.3,0.1-23,0c-3.8-0.1-6.3,2.8-6.3,6.3c0.1,9.5,0.1,19,0,28.6c0,3.4,2.4,6.3,6.3,6.3c15.3-0.1,30.6,0,45.8,0
		c3.9,0,6.2-2.3,6.2-6.2c0-9.5-0.1-19,0-28.6c0-3.4-2.4-6.4-6.3-6.3C64.3,27.6,56.7,27.5,49.1,27.5z"/>
	<path class="st0" d="M24.5,34.5c2.8,2.2,5.4,4.2,7.9,6.3c4.9,3.9,9.9,7.8,14.8,11.7c1.2,1,2.2,1,3.5,0c7.1-5.6,14.2-11.3,21.4-16.9
		c0.4-0.3,0.8-0.6,1.3-1c0,0.5,0,0.8,0,1.1c0,8.8,0,17.6,0,26.4c0,1.6-0.2,1.8-1.8,1.8c-15.1,0-30.3,0-45.4,0
		c-1.5,0-1.7-0.2-1.7-1.7c0-8.8,0-17.7,0-26.5C24.5,35.3,24.5,35,24.5,34.5z"/>
	<path class="st0" d="M29.1,32.2c13.3,0,26.4,0,39.5,0c0.1,0.1,0.1,0.1,0.2,0.2c-0.2,0.1-0.4,0.2-0.6,0.3
		c-6.2,4.9-12.5,9.9-18.7,14.8c-0.4,0.3-0.7,0.4-1.1,0c-6.3-5-12.6-10-18.9-15C29.5,32.5,29.4,32.4,29.1,32.2z"/>
</g>
</svg>
