<?xml version="1.0" encoding="utf-8"?>
<!-- Generator: Adobe Illustrator 27.8.0, SVG Export Plug-In . SVG Version: 6.00 Build 0)  -->
<svg version="1.1" id="Layer_1" xmlns="http://www.w3.org/2000/svg" xmlns:xlink="http://www.w3.org/1999/xlink" x="0px" y="0px"
	 width="30px" height="30px" viewBox="0 0 30 30" style="enable-background:new 0 0 30 30;" xml:space="preserve">
<style type="text/css">
	.st0{fill:#99CC66;}
	.st1{fill:#FFFFFF;}
</style>
<g>
	<path class="st0" d="M0.8,24.4c0-6.3,0-12.6,0-18.9c0-0.1,0-0.1,0-0.2c0.4-2.7,2.6-4.6,5.3-4.6c5.9,0,11.8,0,17.7,0
		c0.8,0,1.5,0.1,2.2,0.5c2,1,3.2,2.7,3.2,5c0,3.5,0,7.1,0,10.6c0,2.4,0,4.7,0,7.1s-1.4,4.4-3.7,5.1c-0.4,0.1-0.7,0.2-1.1,0.3
		c-6.3,0-12.6,0-18.9,0c-0.1,0-0.1,0-0.2,0c-2.2-0.3-3.9-1.9-4.5-4C0.9,24.9,0.8,24.7,0.8,24.4z M19.6,24.5c0.1,0,0.2,0,0.4,0
		c1.1-0.1,2-0.4,2.9-1c0.5-0.3,1-0.6,1.1-1.2c0.2-0.6,0.3-1.1,0.4-1.7c0.1-0.3-0.1-0.5-0.3-0.7c-0.3-0.2-0.5-0.3-0.8-0.5
		c-0.9-0.5-1.7-1-2.6-1.5c-0.8-0.5-1-0.5-1.7,0.2c-0.4,0.5-0.8,0.9-1.2,1.4c-0.4,0.5-0.7,0.5-1.2,0.2c-1.1-0.6-2.1-1.3-3.1-2.1
		c-1.4-1.2-2.4-2.7-3.3-4.3c-0.1-0.1-0.1-0.3-0.2-0.4c-0.1-0.2-0.1-0.4,0.1-0.6c0.3-0.3,0.6-0.6,0.9-0.9c0.4-0.3,0.8-0.6,1.1-1
		c0.3-0.3,0.3-0.6,0.1-1s-0.5-0.8-0.7-1.2c-0.4-0.7-0.9-1.5-1.3-2.2C10,5.6,9.6,5.4,9.1,5.5c-0.8,0.1-1.6,0.3-2.2,1
		C6.4,7,6.2,7.6,5.9,8.3C5.6,9.1,5.4,10,5.6,10.9c0.2,1.3,0.7,2.4,1.2,3.6c0.8,1.9,2.1,3.5,3.5,5c1.7,1.7,3.6,3.2,5.9,4.1
		C17.4,23.9,18.5,24.4,19.6,24.5z"/>
</g>
<rect x="4.1" y="3.8" class="st0" width="21.7" height="21.7"/>
<g>
	<path class="st1" d="M18.6,19c-2.4,2.2-5.8,1.6-7.6-0.4c-1.8-2-1.8-4.9-0.1-7c1.7-2,4.8-2.7,7.3-0.9c0-0.1,0-0.1,0-0.2
		c0.1-0.6,0.6-0.9,1.2-0.9c0.5,0.1,1,0.5,1,1.1c0,1.2,0,2.3,0,3.5c0,1.1,0,2.1,0,3.2c0,0.7,0.4,1.2,1.1,1.5c0.6,0.2,1.3,0,1.8-0.5
		c0.1-0.2,0.2-0.3,0.3-0.5c1-3.1,0.5-6-1.6-8.5C20,7.1,17.5,6,14.6,6.1c-4.2,0.2-7.7,3.3-8.4,7.5c-0.8,4.8,2.4,9.4,7.2,10.2
		c2.2,0.4,4.2,0,6.1-1.1c0.6-0.3,1.3-0.2,1.6,0.4c0.3,0.5,0.1,1.1-0.4,1.5c-1,0.6-2.1,1-3.2,1.3c-6.1,1.3-11.9-2.4-13.3-8.5
		C2.9,11.4,6.6,5.5,12.6,4.2c6.1-1.4,12.1,2.6,13.3,8.8c0.4,1.9,0.3,3.8-0.4,5.7c-0.5,1.5-1.6,2.4-3.2,2.5c-1.5,0.1-2.7-0.6-3.5-1.9
		C18.7,19.2,18.6,19.1,18.6,19z M18.2,15.1c0-1.8-1.4-3.2-3.2-3.2c-1.8,0-3.2,1.4-3.2,3.2c0,1.8,1.4,3.2,3.2,3.2
		C16.8,18.3,18.2,16.8,18.2,15.1z"/>
</g>
</svg>
