<?xml version="1.0" encoding="utf-8"?>
<!-- Generator: Adobe Illustrator 27.8.0, SVG Export Plug-In . SVG Version: 6.00 Build 0)  -->
<svg version="1.1" id="Layer_1" xmlns="http://www.w3.org/2000/svg" xmlns:xlink="http://www.w3.org/1999/xlink" x="0px" y="0px"
	 width="30px" height="30px" viewBox="0 0 30 30" style="enable-background:new 0 0 30 30;" xml:space="preserve">
<style type="text/css">
	.st0{fill:#99CC66;}
</style>
<g>
	<path class="st0" d="M0.5,15.2c0-0.2,0-0.3,0-0.5c0-0.1,0-0.2,0.1-0.4c0.1-0.6,0.1-1.2,0.2-1.8c0.5-2.8,1.6-5.3,3.6-7.3
		C8,1.4,12.5-0.1,17.6,0.8c3.8,0.7,6.8,2.6,9.1,5.8c2.3,3.2,3.2,6.9,2.5,10.8c-0.5,2.8-1.7,5.3-3.7,7.4c-2.4,2.5-5.3,4-8.7,4.5
		c-1.8,0.2-3.7,0.2-5.5-0.3c-4-1.1-7-3.4-9-7c-1.1-2-1.7-4.1-1.8-6.3C0.6,15.5,0.6,15.4,0.5,15.2z M10.5,21.8
		c0.1-0.1,0.1-0.1,0.2-0.2c1.4-1.4,2.7-2.7,4.1-4.1c0.2-0.2,0.3-0.2,0.5,0c1.4,1.4,2.7,2.8,4.1,4.1c0.1,0.1,0.2,0.1,0.2,0.2
		c0.8-0.8,1.5-1.5,2.3-2.3c-0.1-0.1-0.1-0.1-0.2-0.2c-1.4-1.4-2.7-2.7-4.1-4.1c-0.2-0.2-0.2-0.3,0-0.5c1.4-1.4,2.7-2.7,4.1-4.1
		c0.1-0.1,0.1-0.2,0.2-0.2c-0.8-0.8-1.5-1.5-2.3-2.3c-0.1,0.1-0.1,0.1-0.2,0.2c-1.4,1.4-2.7,2.7-4.1,4.1c-0.2,0.2-0.3,0.2-0.5,0
		c-1.4-1.4-2.7-2.7-4.1-4.1c-0.1-0.1-0.2-0.2-0.2-0.2c-0.8,0.8-1.5,1.5-2.3,2.3c0.1,0.1,0.1,0.1,0.2,0.2c1.4,1.4,2.7,2.7,4.1,4.1
		c0.2,0.2,0.2,0.3,0,0.5c-1.4,1.4-2.7,2.7-4.1,4.1c-0.1,0.1-0.2,0.2-0.2,0.2C9,20.3,9.7,21.1,10.5,21.8z"/>
</g>
</svg>
