<?xml version="1.0" encoding="utf-8"?>
<!-- Generator: Adobe Illustrator 27.8.0, SVG Export Plug-In . SVG Version: 6.00 Build 0)  -->
<svg version="1.1" id="Layer_1" xmlns="http://www.w3.org/2000/svg" xmlns:xlink="http://www.w3.org/1999/xlink" x="0px" y="0px"
	 width="98px" height="96px" viewBox="0 0 98 96" style="enable-background:new 0 0 98 96;" xml:space="preserve">
<style type="text/css">
	.st0{fill:#99CC66;}
</style>
<g>
	<path class="st0" d="M2.4,51.9c0-2.6,0-5.1,0-7.6c0.1-0.2,0.2-0.4,0.2-0.5c0.7-7.7,3.2-14.8,7.5-21.1C19,9.5,31.4,2.5,47.4,1.7
		C56.5,1.3,65,3.5,72.8,8.2c12.4,7.6,19.9,18.7,22.3,33.1c0.2,1.1,0.3,2.2,0.5,3.3c0,2.5,0,4.9,0,7.5c-0.1,0.2-0.2,0.4-0.2,0.5
		c-0.3,2.1-0.5,4.1-1,6.2c-3.7,14.5-12.3,25-25.9,31.6c-3.9,1.8-7.9,3.1-12.2,3.7c0-10.9,0-21.7,0-32.4c3.6,0,7.2,0,10.8,0
		c0.7-4.5,1.3-8.9,2.1-13.4c-4.3,0-8.6,0-12.9,0c0-2.8,0-5.4,0-8.1c0-0.4,0-0.8,0-1.2c0.4-3.7,2.1-5.6,5.3-6.3
		c1.4-0.3,2.9-0.2,4.3-0.2c1.2,0,2.5,0,3.7,0c0-3.9,0-7.7,0-11.4c-0.2-0.1-0.3-0.1-0.4-0.1c-4.4-0.6-8.8-1.1-13.3-0.6
		c-3.2,0.4-6.1,1.5-8.5,3.6c-4.1,3.4-5.5,8-5.7,13.1c-0.1,3.5,0,7,0,10.5c0,0.3,0,0.6,0,1c-4,0-7.9,0-11.8,0c0,4.5,0,8.9,0,13.4
		c3.9,0,7.8,0,11.7,0c0,10.9,0,21.7,0,32.4c-0.8-0.1-1.5-0.2-2.3-0.4c-8.6-1.8-16.2-5.7-22.6-11.9C9.5,74.6,4.9,66.1,3.1,56
		C2.9,54.7,2.7,53.3,2.4,51.9z"/>
</g>
</svg>
