<?xml version="1.0" encoding="utf-8"?>
<!-- Generator: Adobe Illustrator 27.8.0, SVG Export Plug-In . SVG Version: 6.00 Build 0)  -->
<svg version="1.1" id="Layer_1" xmlns="http://www.w3.org/2000/svg" xmlns:xlink="http://www.w3.org/1999/xlink" x="0px" y="0px"
	 width="98px" height="96px" viewBox="0 0 98 96" style="enable-background:new 0 0 98 96;" xml:space="preserve">
<style type="text/css">
	.st0{fill:#E94335;}
	.st1{fill:#34A753;}
	.st2{fill:#4285F3;}
	.st3{fill:#FABB05;}
</style>
<g>
	<path class="st0" d="M9.9,27.9c1.5-3.1,3.3-5.9,5.5-8.5C22.3,11.2,31,6.1,41.6,4c3-0.6,6.1-0.9,9.1-0.8c7.5,0.2,14.6,2,21.1,5.7
		c2.8,1.6,5.3,3.5,7.7,5.6c0.1,0.1,0.2,0.1,0.3,0.2c-4.2,4.2-8.4,8.4-12.6,12.6c-0.5-0.4-1.1-0.9-1.7-1.4c-4-3.1-8.5-4.8-13.6-5.2
		c-12.5-0.9-23.3,7.1-27.2,18.1c0,0.1-0.1,0.3-0.2,0.4c-0.2-0.1-0.3-0.2-0.5-0.4C19.3,35.2,14.6,31.6,9.9,27.9z"/>
	<path class="st1" d="M24.5,56.8c0.8,1.7,1.5,3.6,2.5,5.2c4.3,7,10.4,11.6,18.5,12.9c7,1.2,13.6,0,19.7-3.9c0.1,0,0.1-0.1,0.2-0.1
		c4.7,3.7,9.4,7.3,14.2,11c-2.1,2-4.4,3.7-7,5.1c-5.8,3.3-12,5-18.6,5.5c-6.9,0.6-13.7-0.3-20.2-2.8C23.2,85.7,15.3,78.5,10,68.4
		c-0.1-0.1-0.1-0.2-0.1-0.3c0.2-0.1,0.4-0.3,0.6-0.4C15.1,64,19.8,60.4,24.5,56.8z"/>
	<path class="st2" d="M79.5,82c-4.7-3.7-9.4-7.3-14.2-11c3.1-2.2,5.6-4.9,7.2-8.4c0.8-1.7,1.4-3.5,1.7-5.5c-8.1,0-16.3,0-24.4,0
		c0-5.9,0-11.6,0-17.4c14,0,28,0,42.1,0c0.1,0.8,0.3,1.7,0.4,2.5c0.4,3,0.6,5.9,0.4,8.9C92.5,58.2,91,65,87.7,71.3
		c-2.1,3.9-4.7,7.4-7.9,10.5C79.7,81.9,79.6,81.9,79.5,82z"/>
	<path class="st3" d="M24.5,56.8c-4.7,3.6-9.3,7.2-14,10.9c-0.2,0.1-0.4,0.3-0.6,0.4C9,66,8.1,64,7.3,61.9
		c-1.5-4.3-2.2-8.8-2.3-13.4C5,41.4,6.5,34.7,9.7,28.3c0.1-0.1,0.1-0.3,0.2-0.4c4.7,3.6,9.4,7.3,14.1,10.9c0.2,0.1,0.3,0.2,0.5,0.4
		c-0.4,1.9-1,3.8-1.2,5.7c-0.5,3.9-0.1,7.7,1.1,11.4C24.4,56.5,24.5,56.6,24.5,56.8z"/>
</g>
</svg>
