<?xml version="1.0" encoding="utf-8"?>
<!-- Generator: Adobe Illustrator 27.8.0, SVG Export Plug-In . SVG Version: 6.00 Build 0)  -->
<svg version="1.1" id="Layer_1" xmlns="http://www.w3.org/2000/svg" xmlns:xlink="http://www.w3.org/1999/xlink" x="0px" y="0px"
	 width="30px" height="30px" viewBox="0 0 30 30" style="enable-background:new 0 0 30 30;" xml:space="preserve">
<style type="text/css">
	.st0{fill:#99CC66;}
</style>
<g>
	<path class="st0" d="M28.8,5.2c-0.1,0.2-0.2,0.5-0.3,0.7c-0.5,0.7-1.1,1-1.9,1c-7.7,0-15.3,0-23,0C2.8,7,2.2,6.8,1.7,6.3
		C1.5,6,1.4,5.6,1.2,5.2c0-0.3,0-0.6,0-0.9c0.2-0.3,0.3-0.7,0.5-1c0.4-0.6,1.1-0.7,1.8-0.7c7.7,0,15.3,0,23,0c1,0,1.8,0.5,2.2,1.4
		c0.1,0.1,0.1,0.2,0.2,0.4C28.8,4.7,28.8,5,28.8,5.2z"/>
	<path class="st0" d="M1.2,24.8c0.2-0.4,0.3-0.8,0.7-1.2C2.2,23.2,2.7,23,3.3,23c7.7,0,15.4,0,23.2,0c1,0,2,0.5,2.3,1.6
		c0,0.1,0.1,0.1,0.1,0.2c0,0.3,0,0.5,0,0.8l-0.1,0.1c-0.2,0.9-1.1,1.6-2,1.6c-3.5,0-7,0-10.5,0c-4.3,0-8.7,0-13,0
		c-0.5,0-0.9-0.2-1.2-0.5c-0.4-0.3-0.6-0.7-0.7-1.2C1.2,25.3,1.2,25.1,1.2,24.8z"/>
	<path class="st0" d="M1.2,14.6c0.2-0.3,0.3-0.7,0.6-1c0.3-0.5,0.8-0.6,1.3-0.7c0.2,0,0.3,0,0.5,0c7.6,0,15.3,0,22.9,0
		c0.7,0,1.3,0.2,1.7,0.7c0.3,0.3,0.5,0.7,0.6,1c0,0,0,0.1,0.1,0.1c0,0.3,0,0.5,0,0.8c-0.2,0.3-0.3,0.6-0.5,0.9
		c-0.3,0.5-0.8,0.7-1.4,0.8c-0.2,0-0.3,0-0.5,0c-7.7,0-15.4,0-23.1,0c-1,0-2-0.7-2.2-1.7l0,0C1.2,15.1,1.2,14.9,1.2,14.6z"/>
</g>
</svg>
