<?xml version="1.0" encoding="utf-8"?>
<!-- Generator: Adobe Illustrator 27.8.0, SVG Export Plug-In . SVG Version: 6.00 Build 0)  -->
<svg version="1.1" id="Layer_1" xmlns="http://www.w3.org/2000/svg" xmlns:xlink="http://www.w3.org/1999/xlink" x="0px" y="0px"
	 width="30px" height="30px" viewBox="0 0 30 30" style="enable-background:new 0 0 30 30;" xml:space="preserve">
<style type="text/css">
	.st0{fill:#99CC66;}
</style>
<g>
	<path class="st0" d="M0.5,14.3c0-0.2,0-0.3,0-0.5c0.1-0.4,0.4-0.7,0.7-1c4.3-4,8.4-7.9,12.6-11.9c0.9-0.8,1.7-0.8,2.5,0
		c3.6,3.3,7.2,6.6,10.8,9.8c0.6,0.6,1.3,1.1,1.9,1.7c0.5,0.5,0.7,1.1,0.5,1.6c-0.3,0.6-0.8,1.2-1.5,1.4c-0.3,0.1-0.6,0.1-0.8-0.2
		c-0.1-0.1-0.3-0.3-0.5-0.4c0,0.2,0,0.3,0,0.4c0,4.2,0,8.3,0,12.5c0,0.9-0.6,1.5-1.5,1.6c-1.8,0-3.6,0-5.4,0c-0.5,0-1-0.2-1.2-0.7
		c-0.1-0.3-0.2-0.6-0.2-0.9c0-2.9,0-5.8,0-8.7c0-0.1,0-0.2,0-0.3c-2.2,0-4.4,0-6.4,0c0,0.1,0,0.2,0,0.3c0,1.3,0,2.7,0,4.1
		c0,1.5,0,3.1,0,4.7c0,1-0.6,1.6-1.5,1.6c-1.7,0-3.3,0-5,0c-0.6,0-1.1-0.3-1.4-0.9c0-0.4,0-0.7,0-0.9c0-4.2,0-8.4,0-12.6
		c0-0.1,0-0.2,0-0.4c-0.4,0.3-0.6,0.6-0.9,0.8C2.7,16,2,16,1.4,15.5C1,15.2,0.6,14.8,0.5,14.3z"/>
</g>
</svg>
