<?xml version="1.0" encoding="utf-8"?>
<!-- Generator: Adobe Illustrator 27.8.0, SVG Export Plug-In . SVG Version: 6.00 Build 0)  -->
<svg version="1.1" id="Layer_1" xmlns="http://www.w3.org/2000/svg" xmlns:xlink="http://www.w3.org/1999/xlink" x="0px" y="0px"
	 width="98px" height="96px" viewBox="0 0 98 96" style="enable-background:new 0 0 98 96;" xml:space="preserve">
<style type="text/css">
	.st0{fill:#99CC66;}
</style>
<g>
	<path class="st0" d="M73.8,93.7c-16.6,0-33.1,0-49.7,0c-0.2-0.1-0.5-0.1-0.7-0.2c-9.4-1.3-15.8-6.4-19-15.3
		c-0.6-1.7-0.8-3.6-1.2-5.4c0-16.5,0-33,0-49.6c0.1-0.3,0.1-0.5,0.2-0.8c1.3-11.4,10.7-20,22.2-20.1c15.6-0.1,31.2-0.1,46.9,0
		c9.5,0,18,6.3,21,15.3c0.6,1.8,0.8,3.7,1.3,5.5c0,16.5,0,33,0,49.6c-0.1,0.3-0.1,0.5-0.2,0.8c-1,9.1-7.3,16.6-16.2,19.2
		C76.9,93.2,75.3,93.4,73.8,93.7z M48.9,84.5c7.6,0,15.1,0,22.7,0c2.5,0,4.8-0.5,7-1.7c4.7-2.7,7-6.8,7-12.2c0.1-7.7,0-15.5,0-23.2
		c0-7.4,0-14.9,0-22.3c0-7.8-5.8-13.7-13.5-13.7c-15.4-0.1-30.8-0.1-46.3,0c-7.6,0-13.4,5.9-13.4,13.5c-0.1,15.4,0,30.7,0,46.1
		c0,3,0.9,5.8,2.8,8.2c2.8,3.6,6.6,5.3,11.1,5.3C33.8,84.6,41.4,84.5,48.9,84.5z"/>
	<path class="st0" d="M26.1,48c0-12.8,10.1-22.8,23-22.8c12.8,0,22.8,10.1,22.8,22.9c0,12.8-10.1,22.8-23,22.8
		C36.1,70.8,26.1,60.7,26.1,48z M62.7,48c0-7.7-6-13.7-13.7-13.7c-7.8,0-13.8,6-13.7,13.7c0,7.7,6,13.7,13.7,13.7
		C56.8,61.7,62.8,55.7,62.7,48z"/>
	<path class="st0" d="M76.4,25.2c0,2.5-2.1,4.5-4.6,4.5c-2.5,0-4.6-2.1-4.6-4.6c0-2.5,2.2-4.6,4.7-4.5
		C74.5,20.7,76.5,22.8,76.4,25.2z"/>
</g>
</svg>
