<?xml version="1.0" encoding="utf-8"?>
<!-- Generator: Adobe Illustrator 27.8.0, SVG Export Plug-In . SVG Version: 6.00 Build 0)  -->
<svg version="1.1" id="Layer_1" xmlns="http://www.w3.org/2000/svg" xmlns:xlink="http://www.w3.org/1999/xlink" x="0px" y="0px"
	 width="30px" height="30px" viewBox="0 0 30 30" style="enable-background:new 0 0 30 30;" xml:space="preserve">
<style type="text/css">
	.st0{fill:#FFFFFF;}
</style>
<g>
	<path class="st0" d="M24.8,29c-6.5,0-13,0-19.6,0c-0.9-0.4-1.1-0.7-1.1-1.7c0-5.7,0-11.4,0-17.1c0-0.1,0-0.2,0-0.4
		c0.1,0,0.2,0,0.3,0c2.4,0,4.9,0,7.3,0c0.8,0,1.1-0.3,1.1-1.1c0-2.4,0-4.9,0-7.3c0-0.1,0-0.2,0-0.3c0.1,0,0.2,0,0.3,0
		c3.7,0,7.4,0,11.2,0c0.9,0,1.5,0.5,1.5,1.5c0,8.3,0,16.7,0,25c0,0.2,0,0.3,0,0.5C25.7,28.5,25.3,28.8,24.8,29z M15.4,21.5
		c-0.5,0-0.9,0-1.4,0c-0.8,0-1.6,0-2.4,0c-0.7,0-1.1,0.5-1,1.2c0.1,0.5,0.5,0.7,1,0.7c2.2,0,4.3,0,6.5,0c0.3,0,0.7,0,1,0
		c0.5,0,0.9-0.3,1-0.8c0.1-0.6-0.3-1.1-1-1.1C17.9,21.5,16.6,21.5,15.4,21.5z M15.4,14.5c1.3,0,2.5,0,3.8,0c0.7,0,1.1-0.6,0.9-1.2
		c-0.1-0.4-0.5-0.7-1-0.7c-2.5,0-5,0-7.5,0c-0.1,0-0.1,0-0.2,0c-0.4,0-0.7,0.3-0.8,0.7c-0.1,0.6,0.3,1.1,0.9,1.1
		C12.8,14.5,14.1,14.5,15.4,14.5z M15.4,17.1c-1.3,0-2.5,0-3.8,0c-0.6,0-1,0.4-1,0.9s0.4,1,1,1c2.5,0,5,0,7.6,0
		c0.2,0,0.4-0.1,0.6-0.2c0.3-0.2,0.5-0.7,0.3-1c-0.1-0.4-0.5-0.6-0.9-0.6C17.9,17.1,16.7,17.1,15.4,17.1z"/>
	<path class="st0" d="M11,1c0,2.3,0,4.6,0,6.9c-2.3,0-4.6,0-6.9,0c0-0.3,0.1-0.5,0.2-0.8C4.4,7,4.5,7,4.6,6.9
		C6.4,5.1,8.2,3.3,10,1.5C10.3,1.2,10.6,1,11,1z"/>
</g>
</svg>
