<?xml version="1.0" encoding="utf-8"?>
<!-- Generator: Adobe Illustrator 27.8.0, SVG Export Plug-In . SVG Version: 6.00 Build 0)  -->
<svg version="1.1" id="Layer_1" xmlns="http://www.w3.org/2000/svg" xmlns:xlink="http://www.w3.org/1999/xlink" x="0px" y="0px"
	 width="30px" height="30px" viewBox="0 0 30 30" style="enable-background:new 0 0 30 30;" xml:space="preserve">
<style type="text/css">
	.st0{fill:#99CC66;}
</style>
<g>
	<path class="st0" d="M14.8,29.5c-0.2-0.2-0.5-0.4-0.7-0.6c-2.4-2.8-4.6-5.8-6.5-9C6.5,18,5.5,16.1,5,14c-0.9-3.1-0.5-6.1,1.3-8.8
		c1.7-2.6,4.2-4.1,7.2-4.5c3-0.4,5.7,0.3,8.1,2.3c2.1,1.7,3.3,3.9,3.7,6.5c0.3,2.1-0.1,4-0.8,6c-1,2.6-2.3,4.9-3.8,7.2
		c-1.5,2.2-3.1,4.3-4.8,6.3c-0.2,0.2-0.5,0.4-0.7,0.6C15.1,29.5,14.9,29.5,14.8,29.5z M15,16.3c2.9,0,5.3-2.4,5.3-5.3
		c0-2.9-2.4-5.3-5.3-5.3c-2.9,0-5.3,2.4-5.3,5.3C9.7,13.9,12.1,16.3,15,16.3z"/>
</g>
</svg>
