<?xml version="1.0" encoding="utf-8"?>
<!-- Generator: Adobe Illustrator 27.8.0, SVG Export Plug-In . SVG Version: 6.00 Build 0)  -->
<svg version="1.1" id="Layer_1" xmlns="http://www.w3.org/2000/svg" xmlns:xlink="http://www.w3.org/1999/xlink" x="0px" y="0px"
	 width="265px" height="200px" viewBox="0 0 265 200" style="enable-background:new 0 0 265 200;" xml:space="preserve">
<style type="text/css">
	.st0{fill:#99CC66;}
</style>
<g>
	<path class="st0" d="M141.4,142.4c-1.1-2-2.2-3.9-3.3-5.9c-0.2-0.3-0.4-0.7-0.6-0.9c-1.3-1.4-1.5-3.5-0.1-4.7
		c0.4-0.4,1.5-0.5,2.1-0.3c3.5,1.5,7,1.1,10.4-0.1c1.4-0.5,3.4,1.1,3.7,3c0.4,2.3,1.7,2.8,3.8,1.8c1.1-0.5,2.4-0.7,3.5-1.2
		c0.6-0.3,1-1,1.4-1.7c1.1-1.8,2.5-3.1,4.6-3.5c0.6-0.1,1.3,0.2,1.8,0.5c0.9,0.4,1.7,0.8,2.5,1.2c0.2-0.9,0.9-1.9,0.6-2.7
		c-0.3-0.9-1.1-2-1.9-2.4c-2.5-1-4-2.9-3.6-5.4c3.8,0.8,6.3,3.2,8.1,6.4c0.5,0.9,1.2,1.8,1.8,2.7c1.1,1.4,2.2,1.4,3.5,0.2
		c3.8-3.4,3.8-3.3,6.9,0.8c2.5,3.3,5.8,4.8,9.9,4c3.3-0.6,5.7,1.5,8.1,3.1c1.7,1.1,2.8,3.1,4.1,4.7c-0.2,0.2-0.3,0.4-0.5,0.6
		c-1.7-0.3-3.3-0.7-4.9-1c0.5,2.4,1.1,4.9,1.5,7.5c0.3,2,0.6,4.1,0.5,6.1c0,0.8-1.1,1.6-1.8,2.5c0.1,1.4,0.3,3.1,0.2,4.8
		c-0.2,2.5-1.2,3.4-3.8,3.8c-3.3,0.4-4.1,1.6-3.4,4.7c0.6,2.9,0.4,3.3-2.8,3.9c-0.3,0.1-0.6,0.2-0.8,0.4c-1.9,1.8-3.9,3.4-5.6,5.4
		c-1.8,2.2-1.1,4.7-0.4,7.1c0.3,1.1,0.8,2.1,1.5,3.7c-2.7,0.8-5.1,1.7-7.5,2.2c-2.5,0.5-5.3-1.8-5.9-4.3c-0.2-0.9-0.7-1.7-1.3-2.4
		c-1.6-1.8-2.8-1.7-4,0.4c-1.1,1.9-2,3.8-3.1,6c-0.8-3.1-1.7-5.9-2.1-8.7c-1-6.7-3.7-12.9-5.1-19.5c-0.2-1.1-1.5-2-2.4-3
		c-1.3-1.5-3.6-2.3-3-5.2c0.3-1.4-1-3.1-1.6-4.6c-3.1,0.3-3.6-0.3-3.1-3.4c0.3-2-2-3.9-4.2-3.9c-0.3-1.3-0.5-2.6-0.8-3.9
		C143,141.7,142.2,142,141.4,142.4L141.4,142.4z"/>
	<path class="st0" d="M7,112.2c1.5-5.4,2.8-11.3,6.4-16.4c0.5-0.6,0.5-2.3,0.1-2.7c-2.3-2.2-2.2-4.7-1.7-7.4c0.4-2,0.3-3.7-1-5.4
		c-1.3-1.7,0.1-3.2,0.7-4.7c0.5-1.2,1.5-2.2,2.4-3.3c1.2-1.4,1.7-2.6,0.6-4.5c-0.9-1.5-0.9-3.6-1.6-5.3c-0.8-2-2-3.9-2.7-5.9
		c-0.8-2.2-2.6-4.4-1-7c-0.4,0.3-0.7,0.5-1.1,0.8C8,50.2,7.9,50,8,50c1.2-1.1,1.3-2.3,0.7-3.9c-0.4-1-0.1-2.5,0.4-3.5
		c0.8-1.7,0.8-2.9-1.1-3.6c0.2-1.4,0.4-2.5,0.6-4.1c0.9,0.6,1.5,1,2.1,1.5c2.3,2,4.5,4.2,6.8,6.1c2.2,1.8,4.6,1.1,6.1-1.3
		c0.4-0.6,1.4-1.2,1.9-1.1c3,0.7,5.9,1.7,8.9,2.5c1.3,0.3,1.7,1.1,2,2.3c0.6,2.5,1.4,4.9,2.2,7.3c0.9,2.9,1.9,5.8,2.8,8.7
		c0.9,2.7,1.8,5.3,2.5,8.1c0.2,0.7-0.3,1.8-0.8,2.2c-1.3,1-2.9,1.7-4.4,2.6c0.2,0.6,0.4,1.2,0.6,1.8c-1.9,0.5-3.6,0.8-5.3,1.3
		c-0.6,0.2-1.5,0.9-1.4,1.2c0.1,0.6,0.7,1.4,1.3,1.6c3,1,6,1.9,9.1,2.9c0.8,0.2,1.6,0.4,3,0.7c-1.3,2-2.3,3.7-3.4,5.4
		c-0.4,0.6-1.2,1-1.3,1.6c-0.4,3-3.1,4.1-4.9,6c-0.3,0.3-0.9,0.6-0.9,0.9c0,3.4-2,6.6-1.2,10.2c0.2,1.2,0.3,2.4,0.4,3.5
		c-2.7,2.3-5.4,4.8-8.4,7.1c-0.7,0.5-2.1,0.5-3.1,0.3c-1.5-0.3-3-1-4.5-1.5c-0.8-0.3-1.6-0.7-2.4-1.1c-0.5-0.2-1.2-0.6-1.6-0.5
		c-2.1,0.7-3.3-0.3-4.5-1.7C9.6,113.1,8.4,112.9,7,112.2z"/>
	<path class="st0" d="M235.4,39.7c-0.1,0.2-0.3,0.3-0.4,0.5c-0.6,0.7-1.2,1.5-1.8,2.2c0.8,0.4,1.6,1.1,2.5,1.3
		c1.5,0.3,1.8,1,1.9,2.5c0.1,1.6,1,3.2,1.7,4.8c1.1,2.3,2.5,4.5,3.5,6.9c1.1,2.4,2.2,3.1,4.8,2.6c0.8-0.2,1.7-0.5,2.5-0.4
		c0.5,0,1,0.6,1.3,1.1c0.6,1,0.9,2.1,1.6,3c1.5,2.1,3.1,4.1,4.9,6.4c-3.2,0.5-5.9,0.8-8.5,1.4c-1,0.2-1.8,1.1-2.8,1.6
		c-1,0.5-2.1,0.8-3.2,1.1c-0.7,0.2-1.4,0.2-2,0.2c-4.1,0.3-4.2,0.4-4,4.5c0.1,2.3-0.7,3.1-2.9,2.9c-0.3-1.5-0.7-3-1.2-5.1
		c-1.1,1.5-1.9,2.5-2.8,3.9c0,0.1,0.2,0.5,0.4,0.9c-0.6,0.2-1.1,0.4-1.7,0.7c0.3,0.6,0.6,1.1,0.8,1.5c1.3,2.7,0.8,3.7-2.2,4
		c-1.4,0.2-1.9,0.7-1.5,2.1c0.2,0.6,0.3,1.3,0.4,2.2c-0.8,0.1-1.6,0-2.1,0.3c-0.8,0.5-1.9,1.2-2.2,2c-0.7,1.9-3,3.1-6.2,3.1
		c-2.3,0-2.4-1.7-2.8-3.2c-0.9-4-2.4-7.6-6.9-8.9c0.5-4.8,2.1-8.9,5.1-12.5c1.2-1.5,2-3.3,2.9-5.1c0.3-0.6,0.2-1.4,0-2.1
		c-0.5-1.6-1.3-3.1-2.2-5.3c-1.2,0.3-3,0.8-4.9,1.1c-0.7,0.1-1.7,0-2.3-0.4c-2.1-1.3-3.3-3.2-3.1-5.8c0.1-0.7,0.1-1.3,0.3-2
		c0.8-2.6,1-5.2-0.1-7.8c-0.4-0.9-0.4-1.9-0.3-2.9c0.2-2.6-0.4-5-2.1-7.1c-0.3-0.4-0.4-0.9-0.8-1.6c1.8,0,3.4,0.1,4.9,0
		c1.9-0.2,3.7-0.6,5.6-0.9c1-0.2,1.9-0.9,2.8-0.8c3.9,0.2,7.4-0.7,10.7-2.5c0.4-0.2,1.3-0.1,1.7,0.2c3.6,2.7,7.6,4.9,10.2,8.7
		C235.3,39.2,235.3,39.4,235.4,39.7z"/>
	<path class="st0" d="M67.6,35c-0.4-0.9-0.8-1.8-1.2-2.7c1.5-0.4,3-0.7,4.4-1.2c1.6-0.6,3.1-1.3,4.6-2.1c0.9-0.5,1.5-0.9,2.7-0.8
		c1,0.1,2.7-1.6,3.1-2.9c1.4-4.1,3.2-5.2,7.5-4.9c1.2,0.1,2.6-0.7,3.8-1.4c1-0.6,2.4-0.6,2.3-2.6C94.6,15,96.2,15,97,15.9
		c1.6,1.9,2.9,1.5,4.3-0.3c-0.1,0.6-0.3,1.2-0.5,2c2.3,0.7,4.6,1.4,6.9,2.1c2.5,0.7,3.5,2.2,3.6,4.8c0.1,1,0.9,2,1.6,2.8
		c1.4,1.5,3.1,2.9,4.6,4.4c0.2,0.2,0.2,0.7,0,1c-0.7,1.7-1.4,3.5-2.3,5.2c-0.6,1.2-0.7,2.2-0.8,3.6c-0.1,2,1,4.9-2.1,6.3
		c-0.4-1.1-0.7-2.3-1.1-3.4c-0.2,0-0.5,0-0.7,0c-0.5,1.4-1.1,2.9-1.6,4.3c0,0,0,0,0,0c0.2,1.8,0.4,3.6,0.6,5.5
		c-3.2,0.4-1.7,3.6-3.1,5.1c-0.7,0.8-1.3,1.5-2.1,2.2c-1.1,1-2.4,1.8-3.4,2.9c-1.1,1.1-1.9,2.5-2.9,3.7c-0.9,1-3.7,0.5-5.4-0.9
		c0,0,0.1,0.1,0.1,0.1c-0.9-1.4-1.7-3-2.9-4.3c-0.8-0.9-1.9-1.9-3-2c-1.2-0.1-2.6,0.7-4,1.1c0.2-2.1-2.5-4.6,0.9-6.7
		c-3.4-4.2-6.6-8.3-9.8-12.3C71.8,40.2,69.7,37.6,67.6,35L67.6,35z"/>
	<path class="st0" d="M141.4,142.3c0.7,0.2,1.5,0.4,2.2,0.6c0.2-0.2,0.4-0.4,0.5-0.5c0,0.7-0.2,1.5,0,2.2c0.2,0.6,0.7,1.6,1.2,1.6
		c2.5,0.4,3.4,1.3,3.4,3.9c0,2.8,0.6,3.4,3.6,3.2c0.2,1.8,0.1,3.8,0.7,5.4c0.6,1.5,1.9,3,3.3,3.9c1.5,0.9,2.2,2,2.5,3.5
		c0.7,2.8,1.4,5.7,2.1,8.6c-1.5,0.2-2.9-2.6-4.6,0c-0.3-0.6-0.5-0.9-0.6-1.3c-0.6-1.9-1.4-3.1-3.7-2c-0.9,0.4-2.2,0.3-3.5,0.4
		c-0.1,2.2-3.9,3.1-2.1,6.3c-2.4,1-4,3.2-7,2.3c-1.7-0.5-3.4,1.7-3.3,3.5c0,0.2,0.1,0.6,0,0.7c-2.8,2.3-2.4,6.9-6.7,8.2
		c-1.5,0.4-2.6,2.2-3.9,3.3c0.1,0.2,0.3,0.4,0.4,0.6c-0.8,0-1.6,0-2.4,0c-0.6-1.1-1.2-2.1-1.7-3.2c-1.1-2.5-3.2-3.3-5.7-3.2
		c-1.8,0.1-2.4-0.5-1.8-2.4c0.3-1.2-0.1-2.8-0.7-4c-1-1.9-0.9-2.6,1-3.3c2.6-0.8,3.5-2.5,2.7-5.1c-0.9-3-0.1-4.4,2.7-5.6
		c0.7-0.3,1.3-0.8,1.9-1.3c0.4,0.2,0.9,0.6,1.4,0.6c0.7,0.1,1.5,0.1,1.9-0.3c0.3-0.3,0.1-1.2-0.1-1.8c-0.6-3-1.1-6-1.8-9
		c-0.7-3.3-1.6-6.6-2.3-9.9c-0.1-0.6,0-1.7,0.4-2c1.5-1.1,1.3-2.1,0.6-3.6c-0.6-1.3-1.7-3.1-1.2-3.9c1.4-2.4,3.2-4.6,5.3-6.4
		c1.3-1.2,7.7,0.6,8.9,2.2c1.2,1.5,2,3.2,3.2,4.7C139.3,140.4,140.4,141.3,141.4,142.3C141.4,142.4,141.4,142.3,141.4,142.3z"/>
	<path class="st0" d="M114.8,40.6c1.6-3.3,2.9-6.1,4.2-8.9c-2.3-2-4.5-3.6-6.2-5.6c-0.8-0.9-0.8-2.6-1.1-3.9c-0.6-2-2-2.9-3.9-3.3
		c-1.9-0.4-3.8-1.1-6.2-1.8c2.5-3.7,4.9-7.1,7.1-10.4c2.1-0.4,4.4-0.8,6.7-1.2c1.3-0.2,2.7-0.4,4-0.6c0.5-0.1,1.1,0.1,1.6-0.1
		c5-1.9,9.7-1.5,14.3,1.4c1,0.6,2.5,0.8,3.7,0.9c4,0.3,8,0.5,12,0.6c1.8,0,2,1.1,2.1,2.3c0.2,2.4,1.1,5.1,0.4,7.3
		c-1.7,5.1,0.8,10.8-2.9,15.5c-1.4,1.7-2.3,3.9-3.3,5.9c-0.4,0.8-0.5,1.7-0.5,2.6c0,1.6-0.9,2.3-2.3,1.7c-3.3-1.4-6.5-0.8-9.9-0.6
		c-5.1,0.3-10.3,0.2-15.4-0.1C117.5,42.1,116,41,114.8,40.6z"/>
	<path class="st0" d="M187.9,106c1.7-1.1,3.2-1.1,5-0.2c1-0.9,2.1-1.8,3.5-3c-0.2-1.3-0.5-3.3-0.7-5.2c-0.2-2.6-0.4-5.3-0.5-8
		c-0.1-2.2,1.4-3.3,3.4-2.7c2.8,0.8,5.8,1.3,8.4,2.6c1.3,0.6,2,2.5,2.7,3.9c0.4,0.8,0.3,1.9,0.5,2.9c0.8,4.6,4.3,6.7,8.9,5.2
		c0.5-0.2,1-0.5,1.5-0.6c0.8-0.1,1.7,0,2.5,0c-0.1,0.8-0.3,1.6-0.4,2.4c-0.2,1.4-0.4,2.8-0.6,4.2c-0.1,0.9-0.1,1.8-0.5,2.6
		c-0.5,1.2-1.2,2.4-1.9,3.5c-0.1,0.3-0.3,0.6-0.5,0.7c-2.4,0.4-3.1,2.7-4.7,3.9c-0.4,0.3-0.7,0.8-1.1,0.8c-3.8-0.2-3.3,2.9-4.1,5.1
		c-0.2,0.6-0.3,1.1-0.4,1.9c-2.8-1.3-3.4,0.2-3.6,2.5c-0.1,2.5-0.5,5-0.7,7.6c0.2-0.1,0,0.1-0.1,0c-3.1-1.8-6.1-3.4-10.1-2.7
		c-3.2,0.5-5.6-1.7-7.6-4.2c-1-1.3-2.4-2.2-3.4-3.5c-0.4-0.5-0.6-1.4-0.5-2.1c0.1-0.7,0.7-1.3,1.2-1.9c2.6-3.2,2.6-5.4,0-8.6
		c-0.3-0.4-0.2-1.1-0.3-1.7C184.1,108.9,185.3,106.9,187.9,106z"/>
	<path class="st0" d="M85.3,111.8c-3.2,0.4-3.4,2.7-3.9,4.8c-0.1,0.5,0.4,1.2,0.8,1.7c0.3,0.3,0.9,0.4,1.1,0.7c1.1,1.2,2,2.5,3,3.8
		c-1.1,0.9-2.3,1.6-3.3,2.6c-2.5,2.3-5,4.7-7.5,7c-0.5,0.4-1.1,0.7-1.6,1c-0.1-0.6-0.1-1.2-0.2-1.7c-0.1-0.7-0.4-1.3-0.4-1.4
		c-1.5-0.5-2.6-0.7-3.5-1.2c-2.2-1.2-3.5-1.1-5.6,1.4c-1.2-1.5-2.8-2.8-3.5-4.4c-1-2.1-0.1-3.2,2.3-3.6c2.1-0.4,4.4-0.5,4.9-3
		c0.5-2.6-1.5-3.7-3.4-4.9c-1.5-0.9-1.4-2.5-0.1-4c1.9-2.1,3.8-4.1,5.5-6.3c1.6-1.9,3.4-2.1,4.9-0.1c0.9,1.1,1.5,2.5,2.2,3.8
		c0.9,1.9,2.4,2.9,4.4,2.4c2-0.5,3.2-1.9,3.2-4.2c0-1.1,0.2-2.6,0.9-3.4c0.8-0.8,2.3-1.4,3.3-1.1c0.8,0.2,1.7,1.8,1.6,2.8
		c-0.3,5.8,6.3,9.8,11,8.9c2-0.4,3.6-1.5,3.8-3.5c0.6-5.6,4.9-6.2,9-6.9c1.8-0.3,3.9,0.2,5.8,0.4c-1,2.4-1.9,4.7-4.7,5.8
		c-1.7,0.7-2.3,2.3-1.5,4c0.9,1.8-0.3,4.3,2,5.6c0.1,0-0.2,0.5-0.2,0.8c-0.5,2.4,0.1,3.4,2.5,4.1c-0.3,0.7-0.6,1.3-0.8,2
		c1,1.5,0.9,6.5-0.2,8c-1.4-0.5-2.8-1-4.2-1.5c-0.1-0.1-0.4-0.1-0.4-0.1c-2.3,2.1-3.9-0.4-5.9-0.8c-1.5-0.3-2.6-0.9-1.8-2.8
		c0.1-0.3-0.1-0.7-0.1-1.2c-0.7,0.1-1.2,0.1-1.9,0.2c0-0.3,0-0.5,0-0.7c0-1,0.4-2.4-0.1-3c-0.5-0.5-1.9-0.3-2.9-0.1
		c-1.1,0.2-2.2,0.9-3.3,0.8c-3.7-0.2-7.1,0.5-10.3,2.2c-0.5,0.3-1.4-0.1-2.5-0.2c0.5-0.7,0.6-0.8,0.7-0.9c3.8-2.6,3.8-4-0.1-7.1
		c-2.4-1.9-2.3-4.2,0.2-6.1C84.6,112.4,84.8,112.2,85.3,111.8z"/>
	<path class="st0" d="M161.7,37.1c0.7-1.4,1.3-2.7,2.1-4.5c1.4,1.5,2.6,2.7,3.7,4c0.9,1.1,1.6,2.5,3.4,1.6c1.6,3.5,5,4.5,8.1,5.1
		c1.3,0.3,3.1-0.6,4.8,0c0.4,0.1,1.3-0.7,1.5-1.3c0.4-1,0.5-2,0.7-3c5.3,1.5,8.2-2.8,12.3-5.3c1,3,1.9,5.7,2.8,8.5
		c0.6,1.9-0.5,3-1.7,4.3c-1.4,1.4-2.7,3-3.8,4.6c-0.3,0.5-0.4,1.7-0.1,2.1c2.1,2.3,0.4,4.9,0.7,7.3c0,0.2-0.2,0.6-0.4,0.8
		c-2.2,1.3-3.2,3.4-4.2,5.7c-0.4,1.1-2.2,1.6-3.4,2.4c-0.5,0.3-1,0.7-1.3,0.9c-3-2.2-4.7,2.6-7.6,1.1c-0.1-0.5-0.2-1.2-0.4-1.9
		c-0.6-1.7-0.9-3.5-3.2-4.1c-0.8-0.2-1.3-1.3-2.1-1.7c-0.8-0.4-1.8-0.9-2.5-0.6c-1.3,0.4-1.1,1.6-0.5,2.7c0.1,0.2,0.1,0.4,0.1,0.7
		c-2.5,1.2-5,0.9-7.1-0.8c-0.6-0.5-1.1-2.1-0.8-2.6c1.8-2.6,0.7-5.2,0-7.5c-1.2-4-2.2-7.6-0.1-11.7
		C164.6,40.4,164.2,39.5,161.7,37.1z"/>
	<path class="st0" d="M76.2,96.7c-0.7-0.6-1.6-1.7-2-1.6c-1.9,0.7-5-1.6-5.7,2.4c-0.1,0.8-1.7,1.3-2.5,1.4c-2.6-0.3-5.2-0.5-7.8-0.9
		c-1-0.1-2-0.4-2.9-0.9c-1.7-0.9-3.8-0.3-5.8,1.9c-1.1,1.2-2,2.4-3-0.1c-0.1-0.2-0.9-0.4-1.3-0.3c-2.7,0.7-5-0.6-7.6-1.2
		c0.3-0.6,0.3-1.1,0.6-1.3c3.6-2.3,4.7-6.5,7.2-9.7c2.1-2.7,1.6-3.3-1.7-4.1c-2.5-0.6-5-1.2-7.5-2c-1-0.3-1.8-1.1-2.7-1.7
		c0-0.2-0.1-0.5-0.1-0.7c2.2-0.5,4.5-1,6.9-1.6c-0.1-0.6-0.3-1.3-0.5-2.2c3.7-1.6,7.4-3.2,11.2-4.8c3.7-1.6,12,1.4,14.4,5
		c0.8,1.2,0.7,3,1.1,4.5c0.2,0.8,0.3,1.5,0.4,2.3c0.8-0.2,1.7-0.4,2.4-0.7c1.4-0.6,2.7-1.4,4.1-1.9c0.3-0.1,0.8,0.5,1,0.5
		c-1,0.9-2.4,1.8-2.3,2.3c0.5,1.6,2,1.8,3.4,1.2c1.6-0.6,3.1-1.7,4.8-2.3c1.2-0.4,2.6-0.4,3.4-0.5c-0.2,2.3-0.6,4.4-0.4,6.4
		c0.2,2.1,1.1,4.2,1.7,6.3c-0.2-0.1-0.5-0.2-0.7-0.2c-0.7,1.3-1.5,2.6-2,4c-0.7,2.3-3.1,3.1-4.9,1.4C76.9,97.3,76.5,97,76.2,96.7
		C76.1,96.6,76.2,96.7,76.2,96.7z"/>
	<path class="st0" d="M76.2,96.7C76.2,96.7,76.1,96.6,76.2,96.7c0.9,2.3,3.9,3.3,6,2c0.8-0.5,1.8-1,3.1-1.6c-0.7,3.7-1,6.9-1.8,9.9
		c-0.2,0.9-1.6,1.9-2.6,2.1c-0.7,0.2-2-0.6-2.6-1.2c-0.7-0.7-0.8-2-1.5-2.8c-1-1.2-2-2.5-3.3-3.3c-1.8-1.1-3.3-0.5-4.5,1.5
		c-1.3,2.3-2.6,4.7-5.1,6.3c-1.4,0.9-1.7,3.2-2.7,4.8c-0.7,1.2-1.5,2.3-2.4,3.8c-0.9-1.1-1.4-1.7-1.9-2.4c-1.4,0.9-2.7,1-4.5,0.6
		c-2.1-0.5-4.7,0-6.4,2c-0.9,1.1-2.1,1.9-3.3,3c1.4,1.9,2.6,3.9,5.7,2.7c-1.4,1.8-2.5,3.3-3.8,4.6c-1.3,1.4-2.3,2.7-1,4.6
		c0.2,0.3,0,0.8-0.1,1.4c-2.1-0.5-3.7-3.1-5.9-0.8c-1-1.1-2.3-2-2.6-3.2c-0.7-2.3-2-1.7-3.3-0.9c-1.9,1.1-3.5,1.5-4.3-1.4
		c-0.3-0.9-1.6-1.4-2.8-2.4c-0.1,0-0.8,0.2-1.5,0.3c-0.5-1.9-1-3.7-1.4-5.4c-0.2,0-0.3,0.1-0.5,0.1c0.3-0.6,0.7-1.2,1-1.8
		c3.6,1,4.2,0.5,7-2.6c1.6-1.8,4-3,6.1-4.4c0.3-0.2,0.6-0.4,0.9-0.6c-1.5-2.6-2-5.2-0.9-8c0.7-1.9,0.6-4,0.8-5.6
		c3.3,0.7,6.3,1.3,9.9,2.1c1.2,1.8,1.7,1.9,3.6-0.4c1.8-2.1,3.4-2.2,6.2-1.2c1.7,0.6,3.7,0.4,5.5,0.7c1.1,0.2,2.2,0.7,3.3,0.9
		c0.6,0.1,1.3,0.1,1.9-0.1c0.9-0.3,1.7-0.9,2.7-1.4c0.2-2.6,0.2-2.6,3.3-2.4C73.8,96.2,75,96.5,76.2,96.7z"/>
	<path class="st0" d="M128.1,98.6c-0.6-0.8-1.7-1.6-1.8-2.4c-0.1-1,0.7-2.1,0.9-3.2c0.1-0.6-0.3-1.3-0.5-2.1
		c3.8-0.1,7.1,1.2,10.4,2.6c2.9,1.3,5,1.1,7.2-1.3c0.6-0.7,2.1-1.2,2.9-0.9c0.7,0.3,1.3,1.7,1.4,2.7c0.2,3-0.8,4.1-3.8,4.8
		c-1.6,0.3-2.3,1.3-2.1,2.8c0.5,3.5-0.3,7.2,2.3,10.4c0.9,1.1,1,3,1,4.5c0,0.6-1.3,1.6-2.1,1.7c-3.2,0.5-4,1.2-3.9,4.5
		c0,1.8,0.1,3.5-2.2,4.2c-0.4,0.1-0.7,1.1-0.9,1.7c-0.3,0.9-0.4,1.9-0.6,2.8c-0.3,0.1-0.5,0.2-0.8,0.3c-0.9-1.7-1.8-3.4-2.5-5.1
		c-1-2.2-1.6-4.5-2.8-6.6c-1.4-2.5,0-4,1.2-5.8c1.2-1.8,1.1-4.8-0.2-5.7c-0.9-0.6-1.8-1.3-2.8-2c0.4,0.9,0.7,2.1,1.4,2.7
		c1.7,1.4,2.2,2.5,1.1,4.5c-0.3,0.6-0.7,1.2-1.1,1.8c-1.5,2.5-1.4,3.3,0.5,5.7c0.7,0.8,0.9,2,1.3,3c0.8,2.2,1.6,4.5,2.5,6.7
		c0.2,0.6,0.9,1,1.4,2.2c-0.7-0.2-1.5-0.2-2.1-0.5c-3.6-2-8.1-1.3-10.3,1.9c-1.4,2.1-3,2.9-5.4,2.2c-0.4-0.1-1,0.2-1.6,0.2
		c3-2.3,2.5-5.8,2.9-8.9c0.2-1.2-0.8-2.7-0.3-4.2c0.1-0.2-0.4-0.8-0.7-0.8c-2.9-0.6-2-2.2-1.1-4c-2.8-1.7-2-4.8-2.5-7.3
		c-0.1-0.6,1.2-1.8,2.1-2.1c3-1.2,3.6-4.1,4.5-6.5c1-3,1.2-6.2,2-9.3c0.2-0.8,1.2-1.4,2-2c0.2-0.1,1.2,0.3,1.2,0.6
		c0.1,0.8,0,1.7-0.4,2.3C124.4,97,126.3,97.8,128.1,98.6z"/>
	<path class="st0" d="M58.8,67.1c-1.3,1.4-2.5,2-4.6,1.1c-1.3-0.5-3.2,0.5-4.7,1c-1.3,0.4-2.6,1.1-4,1.7c-1.5-4.6-3.2-8.8-4.1-13.1
		c-0.7-3.4-2.1-6.4-3.6-9.4c-0.2-0.4-0.3-0.9-0.4-1.3c-0.7-3.2,0.2-4.6,3.4-5.3c3.2-0.8,6.3-1.8,8.6-4.3c0.4-0.4,1-0.6,1.6-0.8
		c2.7-0.7,4.9-2,6.9-4c1.2-1.2,2.9-2.2,4.5-2.5c0.9-0.2,2.1,1.3,3,2.2c0.8,0.8,1.4,1.8,2.1,2.8c0,0-0.1-0.1-0.1-0.1
		c0.7,1.1,1.2,2.2,2,3.2c2.4,3.2,4.9,6.3,7.5,9.6c-1.9,1.1-3.7,2-5.4,3c0,0.4,0,0.8-0.1,1.2c0.5,0.8,1,1.7,1.6,2.8
		c-2.2-0.2-3.8-0.5-5.4-0.5c-3.2,0-5.2,2.3-7.3,4.2c-0.6,0.5,0.2,2.8,0.4,4.2c0,0.1-0.1,0.3-0.1,0.4c-0.2,0-0.4,0-0.6-0.1
		c-0.3,0.8-0.5,1.7-0.8,2.5C59.1,66,58.9,66.6,58.8,67.1L58.8,67.1z"/>
	<path class="st0" d="M187.9,106c-2.6,0.9-3.8,2.9-4.1,5.6c-0.9,0.6-1.3,1.1-0.3,2.1c2.3,2.4,2.4,4.8,0.4,7.4c-1,1.3-2.3,2.3-2,4.6
		c0.1,1.1-2.1,2.6-3.4,3.6c-0.3,0.2-1.9-1.1-2.6-2c-2.3-2.9-3.8-6.7-8.1-7.5c-0.5-0.1-0.8-0.8-1.2-1.3c-1.1-1.4-2.5-2.6-3.1-4.2
		c-0.6-1.3-0.5-3-0.2-4.4c0.2-1.1,1-2.1,1.8-3.7c-1.2,0-2.1,0-2.9,0c-1.9,0.1-3.9,0.2-5.8,0.5c-0.7,0.1-1.4,0.8-2.4,1.3
		c-1.6-1.2-0.6-2.8,0.1-4.4c-0.9-0.4-1.6-0.7-2.4-1c0-0.2,0.1-0.4,0.1-0.6c1.4,0,2.9,0.2,4.3,0c2.8-0.4,4.2-3,3-5.6
		c-0.2-0.3-0.4-0.7-0.4-1.1c0-1.1,0.2-2.3,0.3-3.4c0.9,0.6,1.9,1.1,2.5,1.9c1.7,2.1,3.6,3.1,6.4,2.8c3.2-0.4,6.5-0.7,9.8-0.8
		c2.3-0.1,4.3-0.7,5.4-2.8c2.4-4.3,6.3-5.1,10.9-5c0.4,4.6,0.9,9.4,1.4,14.3c-0.8,0.7-1.7,1.6-2.7,2.5
		C191.1,104.8,189.1,103.7,187.9,106z"/>
	<path class="st0" d="M89.5,149.2c1.4,1.5,2.8,3.1,4.4,4.9c1.5-1.8,2.6-3,3.5-4.2c3.6,0.8,7,1.3,9.6-2.2c0.9-1.3,1.8-0.5,2.4,0.3
		c0.9,1.3,1.9,1.3,3.3,0.9c2.1-0.6,4.4-0.8,6.6-1c0.5,0,1.5,0.8,1.7,1.4c1,3.7,1.8,7.4,2.6,11.1c0.5,2.5,0.6,5.1,1,7.8
		c0.1-0.1-0.1,0.1-0.1,0.1c-2.2-1.3-3.9,0.5-5.7,1.1c-1.4,0.4-2.8,3.4-2.5,5.1c0.1,0.9,0.1,1.8,0,2.7c-0.2,2.7-0.3,2.8-3.1,2.2
		c-0.3-0.1-0.6-0.1-1-0.1c0.1-0.9,0.2-1.7,0.3-2.7c-3.9,0.8-4.9-2.8-7-4.6c-2.7-2.3-3.8-2.5-6.2-0.1c-1.3,1.4-2.6,2.8-4.2,4.5
		c-0.6-0.4-1.8-1.2-3.4-2.2c0.9-0.8,1.5-1.8,2.4-2.2c1.2-0.6,1.5-1.3,1.1-2.5c-0.7-2.2-1.2-4.4-1.9-6.6c-0.6-2-3.8-3.9-5.9-3.8
		c0-3.2-0.9-6.4,1.2-9.3C88.7,149.6,89.2,149.5,89.5,149.2C89.6,149.3,89.5,149.2,89.5,149.2z"/>
	<path class="st0" d="M71.6,52c0-0.4,0-0.8,0.1-1.2c2-0.7,3.9-1.4,6-2.1c1.7,2.1,3.4,4.2,5.1,6.2c-2,3.3-1.5,7,1,8.3
		c1.9-2.8,3.3-2.9,5.6-0.2c1.2,1.4,2.3,2.7,3.5,4.1c0,0-0.1-0.1-0.1-0.1c1.7,2.3,3.4,4.6,5.1,6.9c0,0-0.1-0.1-0.1-0.1
		c0.6,1,1,2.3,1.8,3.1c1.4,1.4,1.4,2.8,0.4,4.1c-0.9-0.7-1.8-2-2.7-1.9c-1.5,0.1-2.9,1.1-5,1.9c-2.9-0.6-6.6-1.4-10.3-1.9
		c-0.8-0.1-1.7,0.5-2.6,0.8c-1.7,0.7-3.4,1.5-5.1,2.1c-0.5,0.2-1.3-0.4-1.8-1.1c0.4-0.1,0.7,0,1.1-0.2c0.5-0.3,1.4-0.5,1.5-1
		c0.1-0.5-0.2-1.4-0.7-1.8c-0.4-0.3-1.3-0.3-1.8-0.1c-1.8,0.8-3.5,1.7-5.6,2.8c1-6.8-3.2-9.7-8.7-11.7c0.2-0.7,0.4-1.3,0.6-2
		c0,0-0.1,0.1-0.1,0.1c0.3-0.6,0.7-1.1,1-1.7c0.3-0.5,0.6-1,0.8-1.5c0.3-0.7,0.6-1.5,0.7-2.2c0.1-1.2-1-2.5,0.5-3.7
		c2.9-2.3,5.9-3.6,9.6-2.8c0.7,0.2,1.6-0.4,2.4-0.6C73.3,53.4,73.5,51.9,71.6,52z"/>
	<path class="st0" d="M153.7,25.5c2.8,0.4,5.8,0.8,8.6,1.4c0.6,0.1,1.6,1.1,1.5,1.7c-0.3,3-1.1,5.9-3.4,8.4c0,0,0,0.3,0.2,0.4
		c3.3,2.3,3.1,3.2,1.3,6.7c-2,3.9-1,7.5,0.1,11.2c0.7,2.4,1.6,4.8,0,7.3c-0.7,1.1-0.6,2.5,0.8,3.4c0.5,0.3,0.9,0.7,1.8,1.5
		c-4.1,0.6-7.6,1.2-11,1.7c-2-2.3-3.2-5.1-6.8-4.7c-2.3,0.2-6.9-5-7.1-7.4c0-0.6,0.1-1.4,0.4-1.7c1.7-1.6,1.5-3.8,2.2-5.8
		c0.8-2.3,2.5-4.2,3.8-6.3c0.4-0.7,0.7-1.6,1-2.4c0.4-1.2,0.6-2.5,1.3-3.5C151,33.7,152.9,29.8,153.7,25.5z"/>
	<path class="st0" d="M89.6,149.3c-0.8-1.3-1.6-2.5-2.4-3.8c-0.3-0.5-0.6-1.1-0.6-1.6c-0.2-2,0-4-0.4-5.9c-0.5-2.4-1.5-4.7-2-7.1
		c-0.2-0.8,0.4-2.4,1.1-2.7c2.7-1.4,5.3-2.8,8.6-2.9c2.1,0,4.1-0.6,6.2-0.9c0.7-0.1,1.4,0,2.1,0.1c-0.1,0.7,0,1.5-0.2,2.1
		c-0.8,1.9,0.8,1.6,1.9,2.1c-0.7,2.4,0.9,2.9,2.7,3.5c1.4,0.4,2.9,1.7,4,1.5c1.5-0.3,2.8-0.2,4.2,0.2c0.6,0.2,1.2,0.6,1.9,1
		c-0.6,0.8-1.1,1.4-1.8,2.4c2.1,0.2,3.8,0.3,5,0.4c0.5,1.5,0.8,3,1.4,4.4c1.2,2.6-0.3,5.2-3.2,5.4c-1.8,0.2-3.7,0.6-5.5,0.6
		c-0.9,0-2.2-0.1-2.7-0.7c-1.4-1.5-2.4-1.4-3.6,0.2c-1.4,1.9-4.6,2.6-6.9,1.8c-1.4-0.5-2.6-0.6-3.3,1.1c-0.4,0.8-1.1,1.4-1.8,2.2
		C92.6,151.5,91.1,150.4,89.6,149.3C89.5,149.2,89.6,149.3,89.6,149.3z"/>
	<path class="st0" d="M61.5,179.1c0.3-2.6,0.6-4.9,0.9-7.3c0.1-0.4,0.3-1.1,0.1-1.3c-1.8-2.5,0.4-4,1.3-5.9c1.3-2.7,2.7-5.3,3.8-8.1
		c0.9-2.3-0.3-4.5-1.5-6.4c-0.8-1.4-1-2.5,0-4.1c1-1.5,1.3-3.6,1.6-5.4c0.3-1.9,0.1-3.8,0.3-5.7c0.2-1.9,0-3.6-2.3-4
		c1.1-1.9,2.6-2,4.5-0.7c0.7,0.5,1.6,0.8,2.9,1.3c-0.2-0.5-0.1-0.3-0.1-0.2c0.2,1,0.4,1.9,0.6,2.9c1-0.6,2.1-1,2.9-1.8
		c1.8-1.7,3.4-3.5,5.1-5.2c0.4-0.3,1.2-0.2,1.8-0.3c0,0.6,0.1,1.3,0.1,1.9c0,1.3-0.2,2.7,0,4c0.7,3.7,1.5,7.3,2.4,11
		c0.2,0.8,0.3,1.8,0.8,2.2c1.7,1.5,1.3,3.1,0.6,4.7c-0.7,1.6-1.3,3.3-3.7,2.7c-0.6-0.2-1.5,0.3-2.1,0.7c-1.9,1.5-3.9,3-5.4,4.9
		c-1.6,2-2.7,4.4-3.9,6.7c-0.8,1.5-1.5,3.1-2.2,4.7c-0.4,0.9-0.9,1.8-1.1,2.7C68.3,176.1,65.5,178.6,61.5,179.1z"/>
	<path class="st0" d="M186,85.3c-1.1,1.5-2.5,3-3.4,4.6c-1.2,2.2-2.7,3.6-5.4,3.6c-3.6,0.1-7.2,0.4-10.7,0.5
		c-1.9,0.1-3.8-1.4-4.6-3.4c-0.6-1.5-1.2-3.5-2.4-4.2c-2.3-1.3-4-2.4-3.3-5.4c0.1-0.3-1-1.1-1.6-1.5c-1.9-1.3-2.1-2.8-1.3-4.9
		c0.5-1.3,0.1-2.9,0.1-4.9c0.6,0.1,1.3,0.4,2.1,0.5c0.5,0,1-0.3,1.5-0.4c0.8-0.1,1.6-0.3,2.4-0.3c0.4,0,1,0.2,1.3,0
		c2.7-1.8,5.7-1.6,8.7-1.8c1.5-0.1,3.3,0,1.9-2.5c-0.1-0.1,1-1.2,1.1-1.1c2,1.6,5.2,2.1,5.8,5.3c0.1,0.8,0.3,1.7,0.2,2.5
		c-0.8,4.8,1.6,8.2,6.4,9.2c0.5,0.1,1,0.6,1.2,1.1c0.4,1.1,0.5,2.2,0.7,3.3C186.4,85.3,186.2,85.3,186,85.3z"/>
	<path class="st0" d="M197.6,53.8c-1.6-1.1-1.7-3.4,0.1-5.1c1.1-1,2.3-2,3.6-3.1c1.6,2.6,0.9,5.1,0.7,7.7c-0.2,2.1-0.5,4.4,0,6.4
		c0.3,1.1,2.2,1.7,3.1,2.7c1.4,1.6,2.4,0.4,3.5-0.3c1.8-1.1,3.2-0.6,4,1.3c0.4,1.1,1.5,2,1.6,3.1c0.1,1-0.3,2.2-0.9,3.1
		c-2.8,4.5-6.2,8.6-6.9,14.1c-0.2,2-1.3,2.4-3,1.5c-0.7-0.4-1.6-0.6-2.3-1.1c-2.6-1.7-4.9-1.9-7.6,0.2c-1.1,0.8-2.8,1-4.3,1.2
		c-1.3,0.2-2.1-0.3-2.2-1.9c-0.2-2-0.6-3.6-3.4-3.6c-1.9,0.1-5.3-4.4-5.2-6.3c0-0.4,0.6-1,1.1-1.2c1.3-0.6,2.6-1,3.9-1.6
		c0.8-0.3,1.5-1.2,2.2,0.1c0.1,0.1,0.5,0.2,0.6,0.1c2.1-1.4,4.4-2.7,6.2-4.5c1.5-1.4,1.7-3.8,3.6-5.2c0.8-0.5,0.8-2.3,1-3.6
		C197.4,56.8,197.4,55.5,197.6,53.8z"/>
	<path class="st0" d="M152.8,104.7c-1.2,1.8-0.4,3.7,2.1,4.7c0.2-0.6,0.3-1.2,0.4-1.6c2.7-0.3,5.3-0.6,8.3-0.9
		c-1.6,3.4-3.6,6.9,1.2,9.4c-0.4,0.6-0.7,1-1.1,1.7c0.7,0.3,1.3,0.5,2,0.7c-0.5,4.4,0.2,5.3,4.5,7.6c1.6,0.8,1,2.3,0.5,3.7
		c-1.6-0.8-2.4-2.7-4.8-1.7c-1.9,0.8-3.2,1.9-4.2,3.5c-1,1.5-5.6,3.2-7.3,2.4c0.8-2.8-1.7-3.5-3.2-4.9c-0.1-0.1-0.6-0.1-0.8,0
		c-4.1,1.9-8.2,1.7-12.5-0.3c0.2-0.5,0.2-1.5,0.6-1.6c3.1-0.9,2.3-3.5,2.4-5.5c0.1-2,0.6-2.9,2.7-2.9c3.1,0,3.6-1.4,2.7-4.3
		c-1.3-4.3-3.2-8.6-2.9-13.3c0-0.6,0.5-1.3,1-1.6c0.9-0.6,1.9-1.1,2.9-1.4c0.5-0.1,1.5,0.1,1.7,0.4c0.8,1.1,1.3,2.5,2,3.7
		C151.4,103.2,152.1,103.8,152.8,104.7z"/>
	<path class="st0" d="M117.1,60.6c-1.1,0.8-2.1,0.7-3.5,0.2c-1.9-0.7-4-0.7-6.5-1c1.4-1.5-0.2-4.2,2.7-5c0.3-0.1,0.7-0.6,0.6-0.9
		c-0.4-1.8-1-3.6-1.5-5.4c0,0,0,0,0,0c0.6-0.9,1.3-1.8,1.9-2.7c0.4,0.9,0.8,1.9,1.2,2.9c2.9-1.7,3.3-2.7,2.8-5.5
		c1.8-2.1,3.9,0,5.8-0.2c2.5-0.2,5-0.1,7.5-0.1c3.4-0.1,6.8-0.3,10.3-0.2c2,0,3.9,0.4,6.3,0.6c-0.6,1.3-0.7,2.1-1.2,2.6
		c-1.6,1.7-2.2,3.6-2.2,6c0,2.9-4.4,6.1-7.4,6.1c-1.8,0-3.7,0.6-4.9,0.8c-0.8,1.7-1.4,2.9-2.2,4.6c-1.3-1.2-2.2-1.9-2.9-2.8
		C121.8,57.9,119.5,57.9,117.1,60.6L117.1,60.6z"/>
	<path class="st0" d="M62.9,147.9c-0.4-0.2-0.8-0.3-0.9-0.6c-1.9-3.1-4.9-5.1-7.4-7.5c-2-1.9-2.8-2.2-5-0.8
		c-2.3,1.5-3.8,1.5-6.2-0.1c0.7-2.3,1.8-4.5,0.8-7c-0.2-0.4,0-1.2,0.2-1.5c1.2-1.6,2.6-3.1,3.9-4.6c0.4-0.5,0.5-1.1,0.8-1.7
		c-0.5-0.2-1-0.5-1.5-0.7c-1.3-0.5-2.6-0.9-4.3-1.5c2.5-2.5,4.2-4.9,7.3-4.9c1,0,2,0.3,3,0.3c1.1,0,2.1-0.2,2.9-0.3
		c1,0.3,1.9,0.9,2.7,0.8c1.9-0.3,3.2-1.4,2.9-3.7c1.3,0.8,2.6,1.4,3.6,2.4c0.6,0.6,1.1,1.7,1.1,2.5c-0.1,0.7-0.9,1.5-1.5,2
		c-0.6,0.4-1.4,0.5-2.2,0.6c-1.5,0.3-3.3,0.6-3.2,2.3c0.1,1.8,1.1,3.6,1.8,5.4c0.1,0.2,0.5,0.3,0.7,0.5c1.5,1.2,4.4,2.4,4.4,3.5
		c-0.2,4.2,0.9,8.8-1.8,12.7C64.3,146.8,63.5,147.3,62.9,147.9z"/>
	<path class="st0" d="M97.8,74c-0.9-1.5-1.8-3.1-3-4.9c3.8,1.2,4.7-2,6.4-3.8c1.3-1.3,1.9-3.3,4.3-2.9c0.1,0,0.3,0,0.4-0.1
		c2.4-3.5,5.3-0.8,7.9-0.6c0.5,0,1.3,1.3,1.4,2c0.4,2.7,1.7,4.8,3.3,7.1c1.6,2.2,2,5.3,3,8c0.3,0.7,0.8,1.4,1.3,2
		c1.2,1.6,2.5,3.1,3.8,4.6c-2.1,1-4.1,1.9-6.1,2.8c-3-3.6-7.9-5.7-7.4-10.9c-2.7-0.3-4.9-0.5-7.1-0.9c-1.9-0.4-3.3,0.1-4.2,2.2
		C100.4,76.9,99.1,75.4,97.8,74C97.7,73.9,97.8,74,97.8,74z"/>
	<path class="st0" d="M111.8,93.6c-2.1,0.9-4,1.8-5.6,2.5c-2.5-3-4.7-5.7-6.9-8.5c-0.4-0.5,0-1.7-0.5-2.2c-1-1.1-2.2-2-3.4-2.9
		c-0.4-0.3-1-0.6-1.4-0.8c0.5-0.4,0.8-1,1.4-1.3c2.3-0.9,2.9-0.6,3.8,2.5c1.3-1.5,2.7-2.6,3.4-4.1c1.3-2.9,3.3-1.8,5.2-1.4
		c1.4,0.3,2.8,0.5,4.2,0.3c0.1,0.1,0.3,0.2,0.3,0.3c0.1,4.4,3.5,6.5,6.2,9.1c0.3,0.3,0.7,0.4,0.8,0.7c0.6,1.4,1.2,1.7,2.6,0.7
		c0.7-0.5,2.3-1.8,3,0.7c-3.2,1.1-3.6,3.7-3.7,6.6c0,1-0.2,2-0.4,2.9c-0.8,3-3.4,4.2-6.1,2.7c-0.7-0.4-1.3-1.4-1.6-2.3
		C112.4,97.5,112.2,95.6,111.8,93.6z"/>
	<path class="st0" d="M135.2,90.4c2.1-0.6,2.2-1.8,1.1-3c-1.7-1.9-0.2-4-0.5-6c0-0.4,0.7-1,1.2-1.3c2.4-1.1,4.7-2.5,7.5-2.9
		c1.3-0.2,2.4-2.3,3.6-3.5c1.3,0,2.9,0,4,0c0,1.2-0.3,2.6,0.1,3.7c0.5,1.1,1.7,1.9,2.5,3c0.5,0.7,0.8,1.6,0.8,2.4
		c0.1,1.8,0.3,2.9,2.4,3.4c1.2,0.3,1.9,2.1,2.7,3c-1.6,0.9-3.5,1.4-4.1,2.6c-0.6,1.1,0.2,2.9,0.3,4.5c0.1,1.2,0.4,2.8-0.3,3.6
		c-0.5,0.6-2.2,0.6-3.3,0.4c-1.5-0.3-2.6-1.3-2.6-3c0-1.3,0.4-2.7,0.1-3.9c-0.4-1.3-1.3-3-2.4-3.5c-1.1-0.5-3.3-0.3-4.2,0.6
		C140.6,93.9,140.2,93,135.2,90.4z"/>
	<path class="st0" d="M153,73.2c-1.7-0.2-3-0.5-4.4-0.5c-0.5,0-1.4,0.5-1.6,1c-1.2,3.8-4.6,3.1-7,3.8c-1.5,1-3.1,1.6-4,2.7
		c-0.9,1-1.2,2.6-1.6,3.6c-1.2-1.1-2.2-2.1-3.3-2.9c-1.3-1-1.6-1.6-0.1-2.7c0.9-0.7,1.3-2,1.9-3.1c0.5-0.9,0-2.6,1.9-2.5
		c0.2,0,0.6-0.9,0.5-1.2c-0.3-0.7-0.9-1.8-1.4-1.8c-1.9-0.1-2.7-0.8-2.8-2.7c0-0.6-1.2-1.3-1.9-1.6c-2-0.7-2.2-1.4-0.9-2.9
		c0.5-0.6,0.7-1.5,1.3-2.7c2.8-0.5,6.1-1.1,9.4-1.6c1.5,1.9,2.9,4.2,4.8,6c0.9,0.9,2.7,1.1,4.2,1.3c2.1,0.2,4.1,2.2,4.3,4.2
		C152.2,70.5,152.6,71.5,153,73.2z"/>
	<path class="st0" d="M104.4,107.9c-0.4,0.9-0.1,3.1-2.5,3.8c-3,0.8-5.6,0-7.6-2c-1.3-1.3-2.3-3.3-2.6-5.1c-0.7-3.9-1.8-4.9-5.8-4
		c0-1.2,0-2.4,0-3.6c-0.2,0.1-0.3,0.2-0.5,0.3c-0.6-0.8-1.5-1.5-1.8-2.4c-0.1-0.3,1-1.1,1.9-2.1c-0.6-2.2-1.4-4.9-2-7.7
		c-0.6-2.6,0.4-3.9,2.9-4.2c2.9-0.4,3.2,0.2,3.7,3.4c0.4,2.3,1.6,4.4,2.4,6.6c0.3,0.7,0.5,1.4,0.8,2c0.6,1.3,1.1,2.7,2,3.7
		c2.3,2.9,4.8,5.6,7.2,8.5C103.2,105.8,103.6,106.7,104.4,107.9z"/>
	<path class="st0" d="M117,60.7c0.3-0.1,0.6-0.1,0.8-0.2c3.5-1.6,3.4-1.5,6,1c1.8,1.7,3.9,3,5.8,4.5c0.3,0.3,0.7,0.7,0.7,1
		c0,2.1,1.3,2.9,3.2,3.2c0.5,0.1,0.9,0.5,0.8,0.5c-0.7,1.3-1.4,2.1-1.7,3.1c-0.4,1.6-0.6,3.1-2.4,4.1c-1.6,0.8-1.3,2.2,0.5,3.5
		c1.2,0.8,3,1.3,1.7,3.5c-1-0.6-1.9-1.1-3-1.8c-0.5,0.6-0.9,1.2-1.4,2c-1.9-2-3.9-3.6-5.3-5.7c-1.1-1.6-1.1-3.9-1.8-5.8
		c-0.6-1.5-1.2-3.1-2.2-4.1c-2-1.9-2.3-4.2-2.5-6.6C116,62.2,116.7,61.4,117,60.7C117.1,60.6,117,60.7,117,60.7z"/>
	<path class="st0" d="M111.1,94.4c0.7,2.7,1.2,5,1.8,7.6c-1.1,0.3-2.5,0.5-3.8,1.1c-1.4,0.5-2.6,1.4-3.9,2c-0.5,0.2-1.6,0.2-1.9-0.2
		c-2.7-3-5.5-6.1-8-9.3c-0.8-1.1-1-2.7-1.3-4.2c-2.1-2.8-3.7-5.8-3.3-9.8c2.1,0.7,4,1.3,5.9,2.1c0.5,0.2,0.8,0.8,1,1.3
		c0.4,1,0.2,2.4,0.9,2.9c2.4,1.9,3.7,4.6,5.5,7c0.5,0.6,1,1.8,1.5,1.8c1.5-0.2,2.9-0.7,4.3-1.2C110.2,95.4,110.5,95,111.1,94.4z"/>
	<path class="st0" d="M125.1,87.3c2-1.2,3.4-1.9,5-2.8c1.3,0,2.4,3,4.3,0.5c0.7,1.3,1.3,2.5,2.2,4.1c-1,0.4-2,1-2.9,0.9
		c-2.3,0-4.6-0.2-6.8-0.7C126.1,89.2,125.7,88,125.1,87.3z"/>
</g>
</svg>
