<?xml version="1.0" encoding="utf-8"?>
<!-- Generator: Adobe Illustrator 27.8.0, SVG Export Plug-In . SVG Version: 6.00 Build 0)  -->
<svg version="1.1" id="Layer_1" xmlns="http://www.w3.org/2000/svg" xmlns:xlink="http://www.w3.org/1999/xlink" x="0px" y="0px"
	 width="30px" height="30px" viewBox="0 0 30 30" style="enable-background:new 0 0 30 30;" xml:space="preserve">
<style type="text/css">
	.st0{fill:#99CC66;}
</style>
<g>
	<path class="st0" d="M14.2,0.2c0.6,0,1.2,0,1.7,0c0.4,0,0.7,0.1,1.1,0.1c3.7,0.5,6.8,2.2,9.2,5.1c3.1,3.6,4.1,7.9,3.2,12.5
		c-0.7,3.3-2.3,6.1-4.9,8.3c-3.2,2.7-6.8,3.9-11,3.5c-2.4-0.2-4.6-1-6.7-2.4c-3.5-2.4-5.7-5.7-6.5-9.8c-0.1-0.5-0.2-1.1-0.2-1.7
		c0-0.6,0-1.2,0-1.7c0-0.1,0-0.2,0.1-0.3c0.2-2,0.7-4,1.7-5.7c2.3-4.2,5.8-6.7,10.6-7.6C13.1,0.4,13.6,0.3,14.2,0.2z M20.7,15
		c0-0.3-0.1-0.6-0.3-0.8c-2.6-2.6-5.2-5.1-7.8-7.7c-0.5-0.5-1-0.4-1.5,0c-0.3,0.3-0.7,0.6-1,1c-0.5,0.5-0.5,1,0,1.5
		c0.3,0.3,0.6,0.6,0.9,0.9c1.5,1.4,2.9,2.9,4.4,4.3c0.3,0.3,0.5,0.6,0.4,1c-0.1,0.3-0.2,0.5-0.4,0.7c-1.7,1.7-3.4,3.5-5.2,5.2
		c-0.5,0.5-0.5,1.1,0,1.6c0.3,0.3,0.5,0.5,0.8,0.8c0.6,0.6,1.1,0.6,1.7,0c1.6-1.6,3.3-3.3,4.9-4.9c0.9-0.9,1.8-1.8,2.7-2.7
		C20.5,15.6,20.7,15.3,20.7,15z"/>
</g>
</svg>
