<?xml version="1.0" encoding="utf-8"?>
<!-- Generator: Adobe Illustrator 27.8.0, SVG Export Plug-In . SVG Version: 6.00 Build 0)  -->
<svg version="1.1" id="Layer_1" xmlns="http://www.w3.org/2000/svg" xmlns:xlink="http://www.w3.org/1999/xlink" x="0px" y="0px"
	 width="30px" height="30px" viewBox="0 0 30 30" style="enable-background:new 0 0 30 30;" xml:space="preserve">
<style type="text/css">
	.st0{fill:#99CC66;}
</style>
<g>
	<path class="st0" d="M2.6,29.9C2.1,29.7,2,29.2,2,28.7c0-1.2,0.2-2.1,0.5-3.2c0.4-1.3,1-2.3,1.7-3.4c0.6-0.8,1.4-1.6,2.2-2.2
		c0.6-0.4,1.3-1,1.9-1.3c1-0.5,1.9-0.8,3.1-1.1c1.7-0.3,3.5-0.2,5.2-0.1c1.3,0,2.4,0.2,3.7,0.6s2.3,1.1,3.4,1.8
		c1,0.7,1.7,1.6,2.3,2.5c0.7,1.2,1.4,2.3,1.6,3.6c0.2,0.8,0.3,1.6,0.3,2.3c0,0.4,0,0.7-0.3,1.1c-0.1,0.1-0.2,0.1-0.3,0.2
		C19.2,29.9,11,29.9,2.6,29.9z"/>
	<path class="st0" d="M15.9,0.1c0.4,0.1,0.8,0.2,1.3,0.3c1.2,0.3,2.1,0.8,3.1,1.6c0.8,0.7,1.6,1.6,2,2.7c0.3,0.7,0.5,1.5,0.6,2.1
		c0,0.6,0.1,1.4,0,1.9c-0.1,1.2-0.5,2.2-1.2,3.2c-0.4,0.6-0.8,1.2-1.4,1.6c-1,0.8-1.9,1.5-3.1,1.7c-1.1,0.3-1.9,0.4-3,0.3
		c-1.4-0.1-2.4-0.5-3.6-1.3C9,13.1,7.9,11.5,7.4,9.6C7.3,8.9,7.2,8.1,7.3,7.1C7.5,5.5,8.1,4,9.2,2.6c1.1-1.3,2.3-1.9,3.8-2.3
		c0.4,0,0.7-0.1,1.2-0.1C14.8,0.1,15.3,0.1,15.9,0.1z"/>
</g>
</svg>
