<?xml version="1.0" encoding="utf-8"?>
<!-- Generator: Adobe Illustrator 27.7.0, SVG Export Plug-In . SVG Version: 6.00 Build 0)  -->
<svg version="1.1" id="Layer_1" xmlns="http://www.w3.org/2000/svg" xmlns:xlink="http://www.w3.org/1999/xlink" x="0px" y="0px"
	 width="30px" height="30px" viewBox="0 0 30 30" style="enable-background:new 0 0 30 30;" xml:space="preserve">
<style type="text/css">
	.st0{fill:#1481C5;}
</style>
<g>
	<path class="st0" d="M3.2,29c-0.5-0.2-0.6-0.6-0.6-1.1c0-1.1,0.2-2,0.5-3c0.4-1.2,0.9-2.2,1.6-3.2c0.6-0.8,1.3-1.5,2.1-2.1
		c0.6-0.4,1.2-0.9,1.8-1.2c0.9-0.5,1.8-0.8,2.9-1c1.6-0.3,3.3-0.2,4.9-0.1c1.2,0,2.3,0.2,3.5,0.6c1.2,0.4,2.2,1,3.2,1.7
		c0.9,0.7,1.6,1.5,2.2,2.4c0.7,1.1,1.3,2.2,1.5,3.4c0.2,0.8,0.3,1.5,0.3,2.2c0,0.4,0,0.7-0.3,1c-0.1,0.1-0.2,0.1-0.3,0.2
		C18.8,29,11.1,29,3.2,29z"/>
	<path class="st0" d="M15.7,1c0.4,0.1,0.8,0.2,1.2,0.3c1.1,0.3,2,0.8,2.9,1.5c0.8,0.7,1.5,1.5,1.9,2.5c0.3,0.7,0.5,1.4,0.6,2
		c0,0.6,0.1,1.3,0,1.8c-0.1,1.1-0.5,2.1-1.1,3c-0.4,0.6-0.8,1.1-1.3,1.5c-0.9,0.8-1.8,1.4-2.9,1.6c-1,0.3-1.8,0.4-2.8,0.3
		c-1.3-0.1-2.3-0.5-3.4-1.2c-1.6-1.1-2.6-2.6-3.1-4.4C7.6,9.3,7.5,8.5,7.6,7.6c0.2-1.5,0.8-3,1.8-4.3c1-1.2,2.2-1.8,3.6-2.2
		C13.4,1.1,13.7,1,14.1,1C14.7,1,15.1,1,15.7,1z"/>
</g>
</svg>
