<?xml version="1.0" encoding="utf-8"?>
<!-- Generator: Adobe Illustrator 27.8.0, SVG Export Plug-In . SVG Version: 6.00 Build 0)  -->
<svg version="1.1" id="Layer_1" xmlns="http://www.w3.org/2000/svg" xmlns:xlink="http://www.w3.org/1999/xlink" x="0px" y="0px"
	 width="30px" height="30px" viewBox="0 0 30 30" style="enable-background:new 0 0 30 30;" xml:space="preserve">
<style type="text/css">
	.st0{fill:#99CC66;}
</style>
<g>
	<path class="st0" d="M24.2,29.2c-6.9,0-13.7,0-20.6,0c0-1.7,0-3.4,0-5.2c0.4,0,0.8,0,1.3,0c1.2,0,1.7-0.3,1.8-1.5
		c0.1-1.4,0-2.7,0-4.1c-1.1,0-2.1,0-3.1,0c0-1.7,0-3.3,0-5c1,0,1.9,0,2.9,0c0-0.2,0-0.3,0-0.4c0-1.4-0.1-2.8-0.1-4.2
		c0-2.2,0.7-4.2,2.3-5.7c1.3-1.2,2.8-1.9,4.6-2.1c2-0.3,4-0.2,5.9,0.5c3.2,1.1,5.1,3.9,5.1,7.4V9c-2.1,0-4.2,0-6.3,0
		C18,8.6,18,8.2,17.9,7.9c-0.3-1.4-1.7-2.2-3.1-1.8c-0.7,0.2-1.1,0.7-1.3,1.4c-0.2,0.6-0.3,1.2-0.3,1.7c0,1.3,0.1,2.7,0.2,4
		c0,0.1,0,0.1,0,0.2c2,0,3.9,0,5.9,0c0,1.7,0,3.3,0,5c-1.9,0-3.8,0-5.6,0c0,0.6,0,1.2,0,1.8c0.1,1.4-0.1,2.7-1.1,3.9
		c3.9,0,7.8,0,11.7,0C24.2,25.8,24.2,27.5,24.2,29.2z"/>
</g>
</svg>
