<?xml version="1.0" encoding="utf-8"?>
<!-- Generator: Adobe Illustrator 27.8.0, SVG Export Plug-In . SVG Version: 6.00 Build 0)  -->
<svg version="1.1" id="Layer_1" xmlns="http://www.w3.org/2000/svg" xmlns:xlink="http://www.w3.org/1999/xlink" x="0px" y="0px"
	 width="30px" height="30px" viewBox="0 0 30 30" style="enable-background:new 0 0 30 30;" xml:space="preserve">
<style type="text/css">
	.st0{fill:#99CC66;}
</style>
<g>
	<path class="st0" d="M0.2,15C0.2,6.8,6.8,0.2,15,0.2c8.1,0,14.8,6.7,14.8,14.8c0,8.3-6.7,14.9-15,14.8C6.8,29.8,0.2,23.1,0.2,15z
		 M14.2,15c0.1-0.1,0.2-0.2,0.3-0.3c1.4-1.4,2.7-2.7,4.1-4.1c0.6-0.6,0.6-1.4,0-1.9c-0.5-0.5-1.4-0.5-1.9,0
		c-1.8,1.8-3.6,3.6-5.4,5.4c-0.6,0.6-0.6,1.4,0,1.9c0.2,0.2,0.4,0.4,0.6,0.6c1.6,1.6,3.2,3.2,4.7,4.7c0.3,0.4,0.8,0.5,1.3,0.4
		c0.5-0.1,0.9-0.4,1.1-0.9c0.2-0.5,0-1-0.4-1.4c-1.4-1.4-2.8-2.8-4.2-4.2C14.4,15.2,14.3,15.1,14.2,15z"/>
</g>
</svg>
