<?xml version="1.0" encoding="utf-8"?>
<!-- Generator: Adobe Illustrator 27.8.0, SVG Export Plug-In . SVG Version: 6.00 Build 0)  -->
<svg version="1.1" id="Layer_1" xmlns="http://www.w3.org/2000/svg" xmlns:xlink="http://www.w3.org/1999/xlink" x="0px" y="0px"
	 width="30px" height="30px" viewBox="0 0 30 30" style="enable-background:new 0 0 30 30;" xml:space="preserve">
<style type="text/css">
	.st0{fill:#FFFFFF;}
	.st1{fill:#F07E19;}
</style>
<path class="st0" d="M25.7,3.5h-4.9c-0.2,0-0.4,0.2-0.3,0.4c0,0.2,0.2,0.3,0.4,0.3h4.9c0,0,0,0,0,0c0.1,0,0.2-0.1,0.3-0.2
	c0,0,0-0.1,0.1-0.1V3.8C26.1,3.5,26,3.5,25.7,3.5z M25.7,5.2h-4.9c-0.2,0-0.4,0.2-0.3,0.4c0,0.2,0.2,0.3,0.4,0.3h5
	c0.1,0,0.2-0.1,0.3-0.2c0,0,0-0.1,0.1-0.1V5.5C26.1,5.3,26,5.2,25.7,5.2z M25.7,7h-4.9c-0.2,0-0.4,0.2-0.3,0.4
	c0,0.2,0.2,0.3,0.4,0.3h5c0.1,0,0.2-0.1,0.3-0.2c0,0,0-0.1,0.1-0.1V7.3C26.1,7.1,26,7,25.7,7z M20.1,8.3V5h-7.7v11.6h6.4v3.3h7.7
	V8.3H20.1z M22.9,11.8h-3V15c-0.1,0.6-0.5,1-1,1c0,0,0,0-0.1,0c-0.6,0-1-0.4-1-1v-3.1h-3c-0.7,0-1.1-0.3-1.1-0.9
	c-0.1-0.6,0.3-1.1,1-1.1h3.1V6.7c0-0.6,0.4-1,1-1c0.6,0,1,0.4,1,1v3.1h3.1c0.7,0,1.1,0.4,1.1,1C24,11.4,23.6,11.8,22.9,11.8z"/>
<path class="st0" d="M29,5.6c-0.6-3-3.1-5.1-6.2-5.1h-8.1c-2.7,0-5.5,0-8.4-0.1C2.8,0.5,0.1,3.2,0.1,6.7v16.4c0,3.5,2.8,6.3,6.3,6.3
	h16.4c3.6,0,6.3-2.8,6.3-6.3V6.7C29.1,6.3,29.1,6,29,5.6z M20.8,3.5h4.9c0.3,0,0.3,0.1,0.4,0.3v0.1c0,0,0,0.1-0.1,0.1
	c-0.1,0.1-0.2,0.2-0.3,0.2c0,0,0,0,0,0h-4.9c-0.2,0-0.3-0.1-0.4-0.3C20.4,3.7,20.6,3.5,20.8,3.5z M20.8,5.2h4.9
	c0.3,0,0.3,0.1,0.4,0.3v0.1c0,0,0,0.1-0.1,0.1C26,5.9,25.9,6,25.8,6h-5c-0.2,0-0.3-0.1-0.4-0.3C20.4,5.5,20.6,5.3,20.8,5.2z M20.8,7
	h4.9c0.3,0,0.3,0,0.4,0.3v0.1c0,0,0,0.1-0.1,0.1c-0.1,0.1-0.2,0.2-0.3,0.2h-5c-0.2,0-0.3-0.1-0.4-0.3C20.4,7.2,20.6,7,20.8,7z
	 M26.5,19.9h-7.7v-3.3h-6.4V5h7.7v3.3h6.4V19.9z"/>
<rect x="12.4" y="5" class="st0" width="7.7" height="11.6"/>
<rect x="-4.9" y="7.9" class="st0" width="0.1" height="0"/>
<rect x="18.8" y="8.3" class="st0" width="7.7" height="11.6"/>
<g>
	<path class="st1" d="M23.1,8v0.2c0,0.1,0,0.1-0.1,0.2c-0.1,0.2-0.3,0.3-0.5,0.3c0,0,0,0-0.1,0h-7.7c-0.3,0-0.5-0.2-0.6-0.4
		c-0.1-0.3,0.2-0.7,0.5-0.7h7.7C22.8,7.5,22.9,7.6,23.1,8z"/>
	<path class="st1" d="M23.1,10.8V11c0,0.1,0,0.1-0.1,0.2c-0.1,0.2-0.3,0.3-0.5,0.3h-7.8c-0.3,0-0.5-0.2-0.6-0.5
		c-0.1-0.3,0.2-0.6,0.5-0.7h7.7C22.8,10.3,22.9,10.4,23.1,10.8z"/>
	<path class="st1" d="M23.1,13.6v0.2c0,0.1,0,0.1-0.1,0.2c-0.1,0.2-0.3,0.3-0.5,0.3h-7.8c-0.3,0-0.5-0.2-0.6-0.5
		c-0.1-0.3,0.2-0.6,0.5-0.7h7.7C22.8,13.1,22.9,13.2,23.1,13.6z"/>
</g>
</svg>
