<?xml version="1.0" encoding="utf-8"?>
<!-- Generator: Adobe Illustrator 27.8.0, SVG Export Plug-In . SVG Version: 6.00 Build 0)  -->
<svg version="1.1" id="Layer_1" xmlns="http://www.w3.org/2000/svg" xmlns:xlink="http://www.w3.org/1999/xlink" x="0px" y="0px"
	 width="30px" height="30px" viewBox="0 0 30 30" style="enable-background:new 0 0 30 30;" xml:space="preserve">
<style type="text/css">
	.st0{fill:#99CC66;}
</style>
<g>
	<path class="st0" d="M0.5,21.6c0-4,0-7.9,0-11.9c6.2,0,12.5,0,18.7,0c0,0.6,0,1.2,0,1.8c0,1.2,0.9,2.2,2.2,2.4
		c1.1,0.2,2.3-0.5,2.7-1.7c0.1-0.3,0.1-0.7,0.2-1c0-0.5,0-1,0-1.6c1.7,0,3.4,0,5.1,0c0,4,0,7.9,0,11.9c-2.3,0-4.6,0-6.9,0
		c0-2,0-4,0-5.9c-0.6,0-1.1,0-1.7,0c-0.2,1.1-0.6,1.5-1.7,1.7c0,0.6,0,1.1,0,1.7c0.6-0.2,1.1-0.3,1.7-0.4c0,0.9,0,1.9,0,2.9
		C14.1,21.6,7.3,21.6,0.5,21.6z M5.7,15.7C5.7,15.7,5.7,15.7,5.7,15.7c0,0.6-0.1,1.2,0,1.8c0,1.3,1.2,2.4,2.5,2.4
		c1.4,0,2.5-1.1,2.5-2.4c0-1.2,0-2.4,0-3.7c0-1.3-1.1-2.3-2.3-2.4c-1.3-0.1-2.5,0.8-2.7,2.1C5.6,14.2,5.7,15,5.7,15.7z M12.5,15.7
		C12.5,15.7,12.5,15.7,12.5,15.7c0,0.6-0.1,1.2,0,1.8c0,1.4,1.2,2.5,2.5,2.5c1.4,0,2.5-1.1,2.6-2.4c0-1.2,0-2.4,0-3.6
		c0-1.3-1.1-2.3-2.3-2.4c-1.3-0.1-2.5,0.8-2.7,2.1C12.4,14.2,12.5,15,12.5,15.7z"/>
	<path class="st0" d="M0.5,7.6c0.2-0.5,0.3-1,0.6-1.4c0.7-1,1.6-1.5,2.8-1.5c2.7,0,5.4,0,8.1,0c0.1,0,0.2,0,0.4,0c0-0.3,0-0.6,0-0.9
		c0-1.2,0.9-2.2,2.1-2.4c1.2-0.2,2.3,0.4,2.8,1.5c0.1,0.3,0.2,0.7,0.2,1c0,0.3,0,0.5,0,0.8c0.1,0,0.2,0,0.3,0c2.7,0,5.3,0,8,0
		c2,0,3.4,1.4,3.6,2.9c0,0,0,0,0,0.1c0,0.2,0,0.3,0,0.5c-9.6,0-19.3,0-28.9,0C0.5,7.9,0.5,7.8,0.5,7.6z"/>
	<path class="st0" d="M0.5,23.8c0-0.2,0-0.3,0-0.5c9.6,0,19.3,0,28.9,0c0,0.2,0,0.3,0,0.5c0,0.1,0,0.1-0.1,0.2
		c-0.3,1.6-1.7,2.8-3.3,2.8c-7.4,0-14.9,0-22.3,0c-1.1,0-2-0.5-2.6-1.3C0.8,24.9,0.7,24.3,0.5,23.8z"/>
	<path class="st0" d="M21,9.8c0.5,0,1.1,0,1.7,0c0,0.2,0,0.5,0,0.7c0,0.3,0,0.7,0,1c0,0.4-0.3,0.8-0.7,0.8c-0.4,0-0.8-0.2-0.9-0.6
		C20.9,11.1,21,10.4,21,9.8z"/>
	<path class="st0" d="M7.4,15.7c0-0.5,0-1.1,0-1.6c0-0.5,0.4-0.9,0.8-0.9c0.5,0,0.9,0.4,0.9,0.9c0,1.1,0,2.2,0,3.3
		c0,0.5-0.4,0.9-0.9,0.9c-0.5,0-0.8-0.4-0.8-0.9C7.4,16.8,7.4,16.2,7.4,15.7z"/>
	<path class="st0" d="M15.8,15.7c0,0.5,0,1.1,0,1.6c0,0.5-0.4,0.9-0.9,0.9c-0.5,0-0.8-0.4-0.8-0.9c0-1.1,0-2.2,0-3.3
		c0-0.5,0.4-0.9,0.8-0.9c0.5,0,0.8,0.4,0.8,0.9C15.9,14.6,15.8,15.2,15.8,15.7z"/>
</g>
</svg>
