<?xml version="1.0" encoding="utf-8"?>
<!-- Generator: Adobe Illustrator 27.8.0, SVG Export Plug-In . SVG Version: 6.00 Build 0)  -->
<svg version="1.1" id="Layer_1" xmlns="http://www.w3.org/2000/svg" xmlns:xlink="http://www.w3.org/1999/xlink" x="0px" y="0px"
	 width="30px" height="30px" viewBox="0 0 30 30" style="enable-background:new 0 0 30 30;" xml:space="preserve">
<style type="text/css">
	.st0{fill:#FFFFFF;}
	.st1{fill:#F07E19;}
</style>
<g>
	<path class="st0" d="M26.2,29.5c-6.9,0-13.8,0-20.7,0c0-0.1,0.1-0.1,0.1-0.2c1.6-1.6,3.2-3.2,4.7-4.7c0.1-0.1,0.1-0.1,0.2-0.1
		c0.1,0.1,0.2,0.1,0.2,0.1c1.9,1.2,4,1.6,6.2,1c4-1.1,6.5-5.2,5.5-9.2c-1.2-4.8-6.7-7.2-11-4.8c-4,2.2-5.2,7.2-2.7,11
		c0.1,0.2,0.1,0.3,0,0.4c-1.6,1.4-3.2,3-4.7,4.5c-0.1,0.1-0.1,0.1-0.2,0.2c0-9.1,0-18.1,0-27.2c4.8,0,9.6,0,14.5,0c0,2.7,0,5.3,0,8
		c2.7,0,5.3,0,8,0c0,0.1,0,0.2,0,0.4c0,3.6,0,7.3,0,10.9C26.2,23,26.2,26.2,26.2,29.5z"/>
	<path class="st0" d="M15,13c2.9,0.1,5.2,2.4,5.2,5.3c-0.1,2.9-2.4,5.2-5.3,5.2C12,23.3,9.7,21,9.8,18.1C9.9,15.2,12.2,12.9,15,13z"
		/>
	<path class="st0" d="M20.6,6.1c0-1.8,0-3.7,0-5.4c1.8,1.8,3.6,3.6,5.4,5.4C24.3,6.1,22.5,6.1,20.6,6.1z"/>
</g>
<g>
	<path class="st1" d="M14.5,2.7v0.2c0,0.1,0,0.1-0.1,0.2c-0.1,0.2-0.3,0.3-0.5,0.3c0,0,0,0-0.1,0H6.1C5.8,3.4,5.6,3.2,5.5,3
		C5.4,2.7,5.7,2.3,6,2.3h7.7C14.2,2.2,14.3,2.3,14.5,2.7z"/>
	<path class="st1" d="M14.5,5.5v0.2c0,0.1,0,0.1-0.1,0.2c-0.1,0.2-0.3,0.3-0.5,0.3H6.1C5.8,6.2,5.6,6,5.5,5.7S5.7,5.1,6,5h7.7
		C14.2,5,14.3,5.1,14.5,5.5z"/>
	<path class="st1" d="M14.5,8.3v0.2c0,0.1,0,0.1-0.1,0.2C14.3,8.9,14.1,9,13.9,9H6.1C5.8,9,5.6,8.8,5.5,8.5S5.7,7.9,6,7.8h7.7
		C14.2,7.8,14.3,7.9,14.5,8.3z"/>
</g>
</svg>
