<?xml version="1.0" encoding="utf-8"?>
<!-- Generator: Adobe Illustrator 27.7.0, SVG Export Plug-In . SVG Version: 6.00 Build 0)  -->
<svg version="1.1" id="Layer_1" xmlns="http://www.w3.org/2000/svg" xmlns:xlink="http://www.w3.org/1999/xlink" x="0px" y="0px"
	 width="30px" height="30px" viewBox="0 0 30 30" style="enable-background:new 0 0 30 30;" xml:space="preserve">
<style type="text/css">
	.st0{fill:#1481C5;}
</style>
<g>
	<path class="st0" d="M10.2,29.2c-0.3,0-0.6,0-0.8,0c-0.1,0-0.2-0.1-0.2-0.1c-2.2-0.7-4.4-1.5-6.6-2.2c-0.5-0.2-1-0.3-1.4-0.7
		c-0.4-0.4-0.5-0.8-0.7-1.2c0-7.4,0-14.8,0-22.3c0,0,0,0,0,0c0.3-1.2,1.2-1.8,2.3-1.9c4.3,0,8.6,0,12.9,0c0.3,0,0.7,0,1,0.1
		c1.6,0.4,2.6,1.7,2.6,3.2c0.1,1.3,0,2.6,0,3.8c0,0.8-0.9,1.4-1.7,1c-0.5-0.2-0.6-0.6-0.6-1.1c0-1.1,0-2.2,0-3.3
		c0-0.8-0.6-1.4-1.4-1.4c-1.6,0-3.3,0-4.9,0c-0.1,0-0.2,0-0.3,0c0.1,0.1,0.2,0.1,0.3,0.2c0.3,0.2,0.6,0.4,0.9,0.6
		c0.5,0.5,0.6,1.1,0.6,1.8c0,5.7,0,11.5,0,17.2c0,0.1,0,0.2,0,0.3c0.1,0,0.2,0,0.2,0c1.1,0,2.1,0,3.2,0c0.7,0,1.3-0.6,1.3-1.3
		c0-0.5,0-1,0-1.6c0-1.1,0-2.2,0-3.2c0-0.4,0.3-0.8,0.7-0.9c0.9-0.3,1.6,0.3,1.6,1.2c0,1.5,0,3.1,0,4.6c0,0.3,0,0.5-0.1,0.8
		c-0.2,0.8-0.6,1.5-1.3,2.1c-0.6,0.5-1.3,0.7-2,0.7c-1.1,0-2.3,0-3.4,0c-0.1,0-0.2,0-0.2,0c0,0.4,0,0.9,0,1.3c0,0.5-0.2,1-0.6,1.4
		C11.2,28.8,10.7,29,10.2,29.2z"/>
	<path class="st0" d="M21.7,11.4c0-1.2,0-2.4,0-3.6c0-0.5,0.2-0.8,0.6-1c0.4-0.2,0.8-0.2,1.2,0.1c0.1,0.1,0.2,0.2,0.4,0.3
		c1.5,1.5,3,3,4.5,4.5c0.4,0.4,0.5,0.9,0.3,1.4c0,0.1-0.1,0.2-0.2,0.3c-1.6,1.6-3.2,3.2-4.8,4.8c-0.3,0.3-0.7,0.4-1.1,0.3
		c-0.5-0.1-0.7-0.4-0.9-0.9c0-0.1,0-0.1,0-0.2c0-1.2,0-2.3,0-3.5c0,0,0-0.1,0-0.2c-0.1,0-0.2,0-0.3,0c-1.5,0-3,0-4.5,0
		c-0.6,0-1-0.4-1.1-1c-0.1-0.5,0.2-1.2,0.8-1.3c0.2,0,0.3-0.1,0.5-0.1c1.5,0,2.9,0,4.4,0C21.5,11.4,21.6,11.4,21.7,11.4z"/>
</g>
</svg>
