<?xml version="1.0" encoding="utf-8"?>
<!-- Generator: Adobe Illustrator 27.8.0, SVG Export Plug-In . SVG Version: 6.00 Build 0)  -->
<svg version="1.1" id="Layer_1" xmlns="http://www.w3.org/2000/svg" xmlns:xlink="http://www.w3.org/1999/xlink" x="0px" y="0px"
	 width="30px" height="30px" viewBox="0 0 30 30" style="enable-background:new 0 0 30 30;" xml:space="preserve">
<style type="text/css">
	.st0{fill:#99CC66;}
</style>
<g>
	<path class="st0" d="M0.8,24.4c0-6.3,0-12.6,0-18.9c0-0.1,0-0.1,0-0.2c0.4-2.7,2.6-4.6,5.3-4.6c5.9,0,11.8,0,17.7,0
		c0.8,0,1.5,0.1,2.2,0.5c2,1,3.2,2.7,3.2,5c0,3.5,0,7.1,0,10.6c0,2.4,0,4.7,0,7.1c0,2.4-1.4,4.4-3.7,5.1c-0.4,0.1-0.7,0.2-1.1,0.3
		c-6.3,0-12.6,0-18.9,0c-0.1,0-0.1,0-0.2,0c-2.2-0.3-3.9-1.9-4.5-4C0.9,24.9,0.8,24.7,0.8,24.4z M19.6,24.5c0.1,0,0.2,0,0.4,0
		c1.1-0.1,2-0.4,2.9-1c0.5-0.3,1-0.6,1.1-1.2c0.2-0.6,0.3-1.1,0.4-1.7c0.1-0.3-0.1-0.5-0.3-0.7c-0.3-0.2-0.5-0.3-0.8-0.5
		c-0.9-0.5-1.7-1-2.6-1.5c-0.8-0.5-1-0.5-1.7,0.2c-0.4,0.5-0.8,0.9-1.2,1.4c-0.4,0.5-0.7,0.5-1.2,0.2c-1.1-0.6-2.1-1.3-3.1-2.1
		c-1.4-1.2-2.4-2.7-3.3-4.3c-0.1-0.1-0.1-0.3-0.2-0.4c-0.1-0.2-0.1-0.4,0.1-0.6c0.3-0.3,0.6-0.6,0.9-0.9c0.4-0.3,0.8-0.6,1.1-1
		c0.3-0.3,0.3-0.6,0.1-1c-0.2-0.4-0.5-0.8-0.7-1.2c-0.4-0.7-0.9-1.5-1.3-2.2C10,5.6,9.6,5.4,9.1,5.5c-0.8,0.1-1.6,0.3-2.2,1
		C6.4,7,6.2,7.6,5.9,8.3C5.6,9.1,5.4,10,5.6,10.9c0.2,1.3,0.7,2.4,1.2,3.6c0.8,1.9,2.1,3.5,3.5,5c1.7,1.7,3.6,3.2,5.9,4.1
		C17.4,23.9,18.5,24.4,19.6,24.5z"/>
</g>
</svg>
