<?xml version="1.0" encoding="utf-8"?>
<!-- Generator: Adobe Illustrator 27.8.0, SVG Export Plug-In . SVG Version: 6.00 Build 0)  -->
<svg version="1.1" id="Layer_1" xmlns="http://www.w3.org/2000/svg" xmlns:xlink="http://www.w3.org/1999/xlink" x="0px" y="0px"
	 width="98px" height="96px" viewBox="0 0 98 96" style="enable-background:new 0 0 98 96;" xml:space="preserve">
<style type="text/css">
	.st0{fill:#99CC66;}
</style>
<g>
	<path class="st0" d="M4.4,50.6c0-1.7,0-3.5,0-5.2c0.1-0.3,0.1-0.6,0.2-0.9c0.2-1.6,0.3-3.2,0.7-4.8c1.8-9.5,6.2-17.7,13.4-24.2
		c11-10.1,24-13.8,38.7-11.2c9.7,1.7,17.9,6.3,24.5,13.6C91.1,28.1,95,40.3,93.2,54C91.8,64.6,87,73.6,79.1,80.9
		c-6.4,5.9-13.9,9.6-22.5,11c-1.7,0.3-3.3,0.5-5,0.7c-1.7,0-3.5,0-5.2,0c-0.3-0.1-0.6-0.1-0.8-0.2c-1.6-0.2-3.3-0.3-4.9-0.7
		c-9.7-1.9-18-6.5-24.7-13.8c-5.8-6.4-9.4-13.8-10.9-22.4C4.8,53.9,4.6,52.3,4.4,50.6z M25.5,36.2c0,1.9,0.6,4.2,1.8,7
		c2.5,5.7,6,10.6,10.4,15c5.7,5.7,12.2,10.2,20.1,12.5c3,0.9,5.9,0.6,8.7-0.7c2.1-1,3.6-2.7,5.2-4.2c1.2-1.2,1.2-2.1,0-3.3
		c-2.6-2.6-5.1-5.1-7.7-7.7c-1.2-1.2-2.2-1.2-3.4,0c-1.4,1.4-2.8,2.9-4.2,4.3c-1.7,1.7-3.7,1.8-5.6,0.5c-5-3.6-9.4-7.8-13.1-12.8
		c-1.5-2.1-1.4-4,0.4-5.8c1.5-1.5,3-2.9,4.4-4.4c1-1,1-2,0-3.1c-2.7-2.7-5.3-5.4-8-8c-1-1-2-1-3,0c-0.8,0.8-1.7,1.6-2.5,2.5
		C26.8,30.2,25.6,33,25.5,36.2z"/>
</g>
</svg>
