<?xml version="1.0" encoding="utf-8"?>
<!-- Generator: Adobe Illustrator 27.8.0, SVG Export Plug-In . SVG Version: 6.00 Build 0)  -->
<svg version="1.1" id="Layer_1" xmlns="http://www.w3.org/2000/svg" xmlns:xlink="http://www.w3.org/1999/xlink" x="0px" y="0px"
	 width="35.6px" height="35.5px" viewBox="0 0 35.6 35.5" style="enable-background:new 0 0 35.6 35.5;" xml:space="preserve">
<style type="text/css">
	.st0{fill:#00A651;}
	.st1{fill:#FFFFFF;}
</style>
<circle class="st0" cx="17.8" cy="17.8" r="17.5"/>
<g>
	<path class="st1" d="M15.4,21.2c0.1-0.2,0.2-0.2,0.2-0.3c2.7-3.7,5.5-7.4,8.2-11.2c0.5-0.6,1.1-0.9,1.8-0.7
		c0.2,0.1,0.3,0.2,0.5,0.3c0.2,0.2,0.5,0.3,0.8,0.5c0.8,0.6,1,1.5,0.3,2.4c-0.8,1.1-1.7,2.3-2.5,3.4c-2.6,3.5-5.2,6.9-7.7,10.4
		c-0.3,0.4-0.6,0.6-1.1,0.5c-0.2-0.1-0.3-0.1-0.5-0.2c-2.3-1.6-4.4-3.3-6.7-4.9c-0.8-0.6-1-1.5-0.3-2.3c0.2-0.3,0.4-0.5,0.5-0.8
		c0.5-0.8,1.5-0.9,2.3-0.3c1.4,1,2.7,2,4,3C15.3,20.9,15.3,21.1,15.4,21.2z"/>
</g>
</svg>
