<?xml version="1.0" encoding="utf-8"?>
<!-- Generator: Adobe Illustrator 27.8.0, SVG Export Plug-In . SVG Version: 6.00 Build 0)  -->
<svg version="1.1" id="Layer_1" xmlns="http://www.w3.org/2000/svg" xmlns:xlink="http://www.w3.org/1999/xlink" x="0px" y="0px"
	 width="882.8px" height="172.9px" viewBox="0 0 882.8 172.9" style="enable-background:new 0 0 882.8 172.9;" xml:space="preserve"
	>
<style type="text/css">
	.st0{fill:#F07E19;}
	.st1{fill:#99CC66;}
</style>
<g>
	<path class="st0" d="M341.2,22c0,0,0.2-1.1,1.6-1.1h29.1v79.6h-23.7V61.9H347l-11.4,37c0,0-0.3,1.6-1.9,1.6h-17.7
		c-1.6,0-1.8-1.6-1.8-1.6l-11.5-37h-1.3v38.6h-23.7V20.8H307c1.3,0,1.5,1.1,1.5,1.1l16,42.3h0.7L341.2,22z"/>
	<path class="st0" d="M421.1,33.2c15.8,0,23.8,4,23.7,20.8v46.4h-22.9v-4.2c-5,2.6-10.9,4.9-15.6,4.9h-2.6
		c-15.2-0.1-22.9,1.1-22.9-20.8v-5.8c0-16.9,7.6-17.7,22.9-17.7h3.5c6.6,0,9.2,0.9,14.7,2.3v-3.8c-0.2-4.4-1.8-5.7-6.6-5.7h-27.6
		l-0.1-14.3C387.5,35.3,402.1,33.2,421.1,33.2z M410.6,70.4h-2.5c-3.2,0-4.5,1-4.5,4.3v6.6c0,3,1.5,4.2,4.5,4.2h1.9
		c3.2,0,6.7-1,11.8-1.8V71.6C416.7,70.9,413.8,70.4,410.6,70.4z"/>
	<path class="st0" d="M501.1,68.4l19.6,32.1h-26l-9.9-17.6h-0.2l-9.9,17.6h-26l18.5-32.1l-17.9-34.5H475l9.4,18.2h0.5l9.4-18.2H520
		L501.1,68.4z"/>
	<path class="st0" d="M519.2,53h40.2v19.5h-40.2V53z"/>
	<path class="st0" d="M616,20.8h26.6c0,0-18.5,68.6-20.6,76.2c-0.9,3.3-2.2,3.8-4,3.8h-33.2c-1.8,0-3-0.5-3.9-3.8
		c-2.2-7.6-20.7-76.2-20.7-76.2h26.6l13.9,56.5h1.4L616,20.8z"/>
	<path class="st0" d="M708.4,54.3v25.4c0,16.8-7.8,21.5-23.8,21.5h-18.4c-15.8,0-23.7-4.7-23.7-21.5V54.3c0-16.7,7.8-21.4,23.7-21.4
		h18.4C700.5,32.9,708.4,37.6,708.4,54.3z M685.5,79.7V54.2c0-3-1.6-4.3-4.7-4.3h-10.9c-3,0-4.5,1.4-4.5,4.3v25.5
		c0,3,1.6,4.4,4.5,4.4h10.9C683.9,84.1,685.5,82.6,685.5,79.7z"/>
	<path class="st0" d="M740.1,100.5h-22.9V16.4h22.9V100.5z"/>
	<path class="st0" d="M746.5,33.8h8.9v-13h22.9v13h16.8v18.1h-16.8v27.9c0,2.4,1.3,3.8,3.9,3.8c0.3,0,13.8-0.1,13.8-0.1L795.6,98
		c0,0-13.9,3.1-22.4,3.1c-15.4,0-17.9-9.7-17.9-20.4V51.9h-8.9V33.8z"/>
	<path class="st0" d="M858.4,50.3h-30.7c-1.7,0-2.4,0-2.4,1.3v1.4c0,1.6,1.1,1.7,1.7,1.8l12.6,2.3c14.9,2.5,22.5,3.2,22.5,18.9v3.2
		c0,16.4-8,22.1-23.9,22.1c-18.9,0-36.9-2.5-36.9-2.5l0.1-15.5h31.4c5,0,6.7-0.3,6.7-3v-1.5c0-1.4-1.6-1.7-9.4-3.2
		c-4.6-0.8-10.6-1.7-14.6-2.5c-8.4-1.8-13.2-4.6-13.2-15.7V52c0-16.4,7.8-18.8,23.7-18.8c18.9,0,32.3,1.5,32.3,1.5V50.3z"/>
</g>
<g>
	<path class="st0" d="M274.3,123.4h20.6v5.2h-14.4v5.9h12.4v5.4h-12.4v6h14.3v5.5h-20.5V123.4z"/>
	<path class="st0" d="M317.8,151.4h-6V122h6V151.4z"/>
	<path class="st0" d="M353.8,151c0,0-5.2,0.6-11.5,0.6c-5.2,0-7.8-1.4-7.8-7v-8.9c0-4.3,2.9-7.3,8.1-7.3h5c5.2,0,7.8,3,7.8,7.3v6.5
		c0,0.4,0,0.5-0.4,0.5h-14.6v1.4c0,2.6,0.5,2.7,2.8,2.7h10.6L353.8,151z M349.7,136.5c0-3.1-1-3.5-3.1-3.5h-2.6
		c-2.2,0-3.4,0.2-3.4,3.5v2l9.2-0.1V136.5z"/>
	<path class="st0" d="M390.1,151c0,0-4.4,0.6-10.7,0.6c-5.2,0-7.8-1.6-7.8-7.3v-8.8c0-5.6,2.6-7.3,7.8-7.3c6.4,0,10.7,0.4,10.7,0.4
		v4.6h-9.8c-1.9,0-2.8,0.7-2.8,2.7v8c0,2,0.8,2.7,2.8,2.7h9.8V151z"/>
	<path class="st0" d="M404.6,128.4h3.2v-5h6v5h6.2v5h-6.2v11.2c0,1.5,0.5,2.1,1.9,2.1c0.4,0,4.5-0.1,4.5-0.1l-0.1,4.2
		c0,0-4.2,0.8-6.7,0.8c-4.7,0-5.6-2.8-5.6-6.4v-11.8h-3.2V128.4z"/>
	<path class="st0" d="M436,128.4h6v2c1.8-1,4.1-2.2,6-2.2h2.6v5.3h-3.5c-1.5,0-3.3,0.5-5.1,1.3v16.6h-6V128.4z"/>
	<path class="st0" d="M469,119c1.8,0,3.2,1.3,3.2,3.1c0,1.7-1.4,3.1-3.2,3.1c-1.7,0-3.2-1.4-3.2-3.1C465.8,120.3,467.3,119,469,119z
		 M472,151.4h-6v-23h6V151.4z"/>
	<path class="st0" d="M507.2,151c0,0-4.4,0.6-10.7,0.6c-5.2,0-7.8-1.6-7.8-7.3v-8.8c0-5.6,2.6-7.3,7.8-7.3c6.4,0,10.7,0.4,10.7,0.4
		v4.6h-9.8c-1.9,0-2.8,0.7-2.8,2.7v8c0,2,0.8,2.7,2.8,2.7h9.8V151z"/>
	<path class="st0" d="M535.7,128.2c5.2,0,7.8,1.2,7.8,6.8v16.4h-6v-1.7c-1.8,0.9-4.1,1.9-6,1.9h-1.3c-5.1,0-7.6,0.1-7.6-6.8v-2.2
		c0-5.7,2.6-6.1,7.6-6.1h2.2c2.5,0,3.3,0.3,5.2,0.8v-1.6c0-2.4-0.9-3-3.3-3l-9.4,0v-4C524.9,128.8,529.3,128.2,535.7,128.2z
		 M533,140.5h-1.9c-2.2,0-2.8,0.2-2.8,2.6v1.6c0,2,0.8,2.5,2.8,2.5h1.3c1.5,0,3.3-0.7,5.1-1.2v-5.1
		C535.7,140.7,534.5,140.5,533,140.5z"/>
	<path class="st0" d="M566.4,151.4h-6V122h6V151.4z"/>
	<path class="st0" d="M625.1,128.8h-12.4c-2.1,0-2.6,0.1-2.6,2v0.6c0,1,0.4,1.2,1.8,1.5c0,0,8.1,1.5,9.6,1.8
		c4.4,0.8,5.4,2.5,5.4,6.2v3.5c0,5-2.2,7.2-9,7.2c-5.9,0-14-0.6-14-0.6l0-5h13.2c2.7,0,3.6-0.5,3.6-2.6v-1.6c0-0.8-0.2-1.5-1.4-1.7
		c-1.4-0.3-7.5-1.4-8.5-1.6c-4.7-0.8-7-1.2-7-5.9v-2.4c0-5,2.3-7,9.1-7c6,0,12.3,0.5,12.3,0.5L625.1,128.8z"/>
	<path class="st0" d="M661.9,151c0,0-5.2,0.6-11.5,0.6c-5.2,0-7.8-1.4-7.8-7v-8.9c0-4.3,2.9-7.3,8.1-7.3h5c5.2,0,7.8,3,7.8,7.3v6.5
		c0,0.4,0,0.5-0.4,0.5h-14.6v1.4c0,2.6,0.5,2.7,2.8,2.7H662L661.9,151z M657.7,136.5c0-3.1-1-3.5-3.1-3.5H652
		c-2.2,0-3.4,0.2-3.4,3.5v2l9.2-0.1V136.5z"/>
	<path class="st0" d="M680,128.4h6v2c1.8-1,4.1-2.2,6-2.2h2.6v5.3h-3.5c-1.5,0-3.3,0.5-5.1,1.3v16.6h-6V128.4z"/>
	<path class="st0" d="M724.1,151.5h-8.8c-0.6,0-0.8-0.2-1-0.8c-0.6-2.1-6.5-22.3-6.5-22.3h6.8l4.7,17.7h0.8l4.7-17.7h6.8
		c0,0-5.9,20.2-6.5,22.3C724.9,151.4,724.7,151.5,724.1,151.5z"/>
	<path class="st0" d="M749.5,119c1.8,0,3.2,1.3,3.2,3.1c0,1.7-1.4,3.1-3.2,3.1c-1.7,0-3.2-1.4-3.2-3.1
		C746.3,120.3,747.7,119,749.5,119z M752.5,151.4h-6v-23h6V151.4z"/>
	<path class="st0" d="M787.7,151c0,0-4.4,0.6-10.7,0.6c-5.2,0-7.8-1.6-7.8-7.3v-8.8c0-5.6,2.6-7.3,7.8-7.3c6.4,0,10.7,0.4,10.7,0.4
		v4.6h-9.8c-1.9,0-2.8,0.7-2.8,2.7v8c0,2,0.8,2.7,2.8,2.7h9.8V151z"/>
	<path class="st0" d="M822.5,151c0,0-5.2,0.6-11.5,0.6c-5.2,0-7.8-1.4-7.8-7v-8.9c0-4.3,2.9-7.3,8.1-7.3h5c5.2,0,7.8,3,7.8,7.3v6.5
		c0,0.4,0,0.5-0.4,0.5h-14.6v1.4c0,2.6,0.5,2.7,2.8,2.7h10.6L822.5,151z M818.4,136.5c0-3.1-1-3.5-3.1-3.5h-2.6
		c-2.2,0-3.4,0.2-3.4,3.5v2l9.2-0.1V136.5z"/>
	<path class="st0" d="M857.8,133.1h-10c-1.6,0-2.2,0-2.2,1v0.7c0,1,0.3,1.1,1,1.2l6.1,1.1c4.3,0.8,6.7,1.2,6.7,5.9v1.6
		c0,5.2-2.8,7-8,7c-6.4,0-12.1-0.6-12.1-0.6l0-4.4h11c2.4,0,3.4-0.4,3.4-2v-0.8c0-0.8-0.2-1.2-2-1.5l-7.9-1.4
		c-2.8-0.6-4.2-1.4-4.2-5v-1.7c0-5.2,2.6-6,7.8-6c6.4,0,10.4,0.4,10.4,0.4V133.1z"/>
</g>
<g>
	<path class="st0" d="M32.9,14.8c1.7,0,3.3,0,4.8,0c10.6,0,21.1,0,31.7,0c1.5,0,2.8,0.4,4.1,1.2C85.7,24,97.9,32,110,40
		c6,4,12,7.9,18,12c1.2,0.8,2.1,1,3.3,0.1c17.9-11.9,35.8-23.6,53.6-35.5c2-1.3,3.9-1.9,6.2-1.9c10.8,0.1,21.6,0,32.4,0
		c0.5,0,0.9,0,1.4,0c0.4,0,0.8-0.1,1,0.4c0.2,0.5-0.2,0.8-0.6,1.1c-2.6,1.9-5.2,3.8-7.8,5.7c-8.6,6.2-17.2,12.3-25.9,18.4
		c-11.6,8.2-23.2,16.2-34.7,24.6c-8.2,6.1-16.7,11.7-24.8,18c-1.7,1.3-3,1.3-4.8,0c-18.5-13.3-37.1-26.6-55.7-39.9
		c-12.4-8.9-24.9-17.8-37.3-26.6C33.9,16.2,33.3,15.9,32.9,14.8z"/>
	<path class="st1" d="M247.6,67.9c-33,30.8-66.1,61.5-99.1,92.3c-0.1,0-0.2-0.1-0.2-0.1c0.9-1.7,1.8-3.5,2.8-5.2
		c12-20.6,23.9-41.2,35.9-61.7c1.1-2,0.1-1.9-1.4-1.9c-11.8,0-23.6,0-35.4,0c-2.4,0-2.5-0.1-1.3-2.1c3.6-6.2,7.2-12.4,10.8-18.6
		c0.4-0.7,0.9-1.4,1.7-1.9c21.4-15.3,42.9-30.6,64.3-46c0.3-0.2,0.6-0.4,1-0.5c0.5,0.8-0.2,1.2-0.5,1.7
		c-7.9,13.8-15.9,27.7-23.8,41.5c-1.2,2.1-1.2,2.1,1.2,2.1c14,0,28.1,0,42.1,0c0.5,0,1.1,0,1.6,0C247.4,67.6,247.5,67.7,247.6,67.9z
		"/>
	<path class="st1" d="M109.8,158.8c-6.2-5.8-12.4-11.5-18.6-17.3C65.6,117.7,40,93.9,14.5,70.2c-0.8-0.7-1.5-1.4-2.3-2.2
		c0.9-0.8,1.7-0.5,2.4-0.5c13.8,0,27.6,0,41.4,0c2.5,0,2.5,0,1.3-2.3c-7.8-13.7-15.7-27.4-23.5-41.1c-0.3-0.5-0.6-0.9-0.6-1.4l0,0
		c0.8-0.4,1.1,0.3,1.5,0.7c21.1,15,42.2,30.1,63.2,45.1c0.7,0.5,1.3,1,1.8,1.8c3.9,6.7,7.7,13.3,11.6,20c0.1,0.2,0.1,0.4,0.2,0.6
		c-0.5,0.6-1.2,0.3-1.7,0.3c-12,0-23.9,0-35.9,0c-1.7,0-2.3,0.1-1.2,2c12.1,20.8,24.1,41.6,36.1,62.4c0.5,0.9,1,1.9,1.5,2.9
		C110,158.5,109.9,158.6,109.8,158.8z"/>
</g>
<g>
</g>
<g>
</g>
<g>
</g>
<g>
</g>
<g>
</g>
<g>
</g>
</svg>
