<?xml version="1.0" encoding="utf-8"?>
<!-- Generator: Adobe Illustrator 27.8.0, SVG Export Plug-In . SVG Version: 6.00 Build 0)  -->
<svg version="1.1" id="Layer_1" xmlns="http://www.w3.org/2000/svg" xmlns:xlink="http://www.w3.org/1999/xlink" x="0px" y="0px"
	 width="872.7px" height="156px" viewBox="0 0 872.7 156" style="enable-background:new 0 0 872.7 156;" xml:space="preserve">
<style type="text/css">
	.st0{fill:#F07E19;}
	.st1{fill:#99CC66;}
</style>
<g>
	<path class="st0" d="M325.8,10.3c0,0,0.2-1.2,1.6-1.2h29.9v81.7h-24.3V51.3h-1.3l-11.7,37.9c0,0-0.3,1.6-2,1.6h-18.2
		c-1.6,0-1.9-1.6-1.9-1.6l-11.8-37.9H285v39.6h-24.3V9.1h30c1.3,0,1.5,1.2,1.5,1.2l16.5,43.4h0.7L325.8,10.3z"/>
	<path class="st0" d="M407.8,21.9c16.2,0,24.4,4.1,24.3,21.4v47.6h-23.5v-4.3c-5.1,2.7-11.2,5-16,5h-2.7
		c-15.6-0.1-23.5,1.2-23.5-21.4v-6c0-17.4,7.8-18.2,23.5-18.2h3.6c6.8,0,9.5,0.9,15.1,2.3v-3.9c-0.2-4.6-1.9-5.8-6.8-5.8h-28.4
		L373.3,24C373.3,24,388.3,21.9,407.8,21.9z M397,60h-2.6c-3.3,0-4.7,1.1-4.7,4.4v6.8c0,3,1.5,4.3,4.7,4.3h2c3.3,0,6.9-1.1,12.1-1.9
		V61.2C403.3,60.5,400.3,60,397,60z"/>
	<path class="st0" d="M489.9,57.9L510,90.8h-26.7l-10.2-18.1h-0.2l-10.2,18.1H436l19-32.9l-18.3-35.4h26.4l9.7,18.7h0.5l9.7-18.7
		h26.4L489.9,57.9z"/>
	<path class="st0" d="M508.5,42.2h41.2v20h-41.2V42.2z"/>
	<path class="st0" d="M607.8,9.1h27.3c0,0-19,70.4-21.1,78.2c-0.9,3.4-2.2,3.9-4.1,3.9h-34.1c-1.9,0-3-0.5-4-3.9
		c-2.2-7.8-21.2-78.2-21.2-78.2H578l14.2,58h1.4L607.8,9.1z"/>
	<path class="st0" d="M702.6,43.4v26c0,17.3-8.1,22.1-24.4,22.1h-18.9c-16.2,0-24.3-4.8-24.3-22.1v-26c0-17.2,8.1-21.9,24.3-21.9
		h18.9C694.6,21.5,702.6,26.3,702.6,43.4z M679.1,69.5V43.3c0-3-1.6-4.4-4.8-4.4h-11.2c-3,0-4.7,1.4-4.7,4.4v26.1
		c0,3,1.6,4.6,4.7,4.6h11.2C677.5,74,679.1,72.5,679.1,69.5z"/>
	<path class="st0" d="M735.2,90.8h-23.5V4.6h23.5V90.8z"/>
	<path class="st0" d="M741.7,22.4h9.1V9.1h23.5v13.3h17.3V41h-17.3v28.6c0,2.5,1.3,3.9,4,3.9c0.4,0,14.1-0.1,14.1-0.1l-0.2,14.9
		c0,0-14.2,3.2-23,3.2c-15.8,0-18.3-9.9-18.3-20.9V41h-9.1V22.4z"/>
	<path class="st0" d="M856.6,39.4H825c-1.8,0-2.5,0-2.5,1.3V42c0,1.6,1.2,1.8,1.8,1.9l13,2.3c15.3,2.6,23.1,3.3,23.1,19.4v3.3
		c0,16.8-8.2,22.6-24.5,22.6c-19.4,0-37.8-2.6-37.8-2.6l0.1-15.9h32.2c5.1,0,6.9-0.4,6.9-3v-1.5c0-1.4-1.6-1.8-9.7-3.3
		c-4.7-0.8-10.9-1.8-14.9-2.6c-8.6-1.9-13.5-4.7-13.5-16.1v-5.5c0-16.8,8.1-19.3,24.3-19.3c19.4,0,33.1,1.5,33.1,1.5V39.4z"/>
</g>
<g>
	<path class="st0" d="M257.2,117.4h21.1v5.3h-14.8v6.1h12.8v5.5h-12.8v6.2h14.7v5.6h-21V117.4z"/>
	<path class="st0" d="M301.8,146.1h-6.2v-30.2h6.2V146.1z"/>
	<path class="st0" d="M338.8,145.6c0,0-5.3,0.7-11.8,0.7c-5.3,0-8-1.4-8-7.2V130c0-4.4,3-7.5,8.3-7.5h5.2c5.3,0,8,3.1,8,7.5v6.7
		c0,0.4,0,0.5-0.4,0.5h-14.9v1.4c0,2.6,0.5,2.8,2.8,2.8h10.9L338.8,145.6z M334.5,130.8c0-3.2-1-3.6-3.2-3.6h-2.7
		c-2.3,0-3.5,0.2-3.5,3.6v2l9.4-0.1V130.8z"/>
	<path class="st0" d="M376.1,145.6c0,0-4.5,0.7-11,0.7c-5.3,0-8-1.7-8-7.5v-9c0-5.8,2.7-7.5,8-7.5c6.6,0,11,0.4,11,0.4v4.8h-10
		c-2,0-2.8,0.7-2.8,2.8v8.2c0,2,0.9,2.8,2.8,2.8h10V145.6z"/>
	<path class="st0" d="M390.9,122.5h3.3v-5.1h6.2v5.1h6.3v5.1h-6.3v11.5c0,1.5,0.5,2.1,2,2.1c0.4,0,4.6-0.1,4.6-0.1l-0.1,4.3
		c0,0-4.3,0.9-6.9,0.9c-4.8,0-5.8-2.9-5.8-6.5v-12.1h-3.3V122.5z"/>
	<path class="st0" d="M423.1,122.5h6.2v2c1.8-1,4.2-2.2,6.2-2.2h2.6v5.5h-3.6c-1.6,0-3.4,0.5-5.2,1.3v17h-6.2V122.5z"/>
	<path class="st0" d="M457,112.8c1.8,0,3.3,1.4,3.3,3.2c0,1.8-1.5,3.2-3.3,3.2c-1.8,0-3.2-1.4-3.2-3.2
		C453.7,114.2,455.2,112.8,457,112.8z M460,146.1h-6.2v-23.6h6.2V146.1z"/>
	<path class="st0" d="M496.2,145.6c0,0-4.5,0.7-11,0.7c-5.3,0-8-1.7-8-7.5v-9c0-5.8,2.7-7.5,8-7.5c6.6,0,11,0.4,11,0.4v4.8h-10
		c-2,0-2.8,0.7-2.8,2.8v8.2c0,2,0.9,2.8,2.8,2.8h10V145.6z"/>
	<path class="st0" d="M525.4,122.3c5.3,0,8,1.2,8,7v16.8h-6.2v-1.8c-1.8,0.9-4.2,2-6.2,2h-1.4c-5.2,0-7.8,0.1-7.8-7v-2.2
		c0-5.8,2.6-6.3,7.8-6.3h2.3c2.5,0,3.4,0.3,5.3,0.8V130c0-2.4-0.9-3.1-3.4-3.1l-9.6,0v-4.1C514.3,122.9,518.9,122.3,525.4,122.3z
		 M522.7,134.9h-1.9c-2.2,0-2.9,0.2-2.9,2.6v1.6c0,2,0.9,2.6,2.9,2.6h1.3c1.6,0,3.4-0.7,5.2-1.2v-5.3
		C525.4,135.1,524.2,134.9,522.7,134.9z"/>
	<path class="st0" d="M556.9,146.1h-6.2v-30.2h6.2V146.1z"/>
	<path class="st0" d="M617.2,122.9h-12.8c-2.1,0-2.6,0.1-2.6,2.1v0.7c0,1,0.5,1.3,1.8,1.6c0,0,8.3,1.5,9.8,1.8
		c4.5,0.8,5.6,2.6,5.6,6.4v3.6c0,5.1-2.3,7.4-9.2,7.4c-6.1,0-14.3-0.6-14.3-0.6l0-5.2H609c2.8,0,3.7-0.5,3.7-2.7v-1.7
		c0-0.8-0.2-1.5-1.4-1.7c-1.5-0.3-7.7-1.4-8.7-1.6c-4.8-0.9-7.2-1.3-7.2-6v-2.5c0-5.1,2.4-7.2,9.3-7.2c6.1,0,12.6,0.5,12.6,0.5
		L617.2,122.9z"/>
	<path class="st0" d="M654.9,145.6c0,0-5.3,0.7-11.8,0.7c-5.3,0-8-1.4-8-7.2V130c0-4.4,3-7.5,8.3-7.5h5.2c5.3,0,8,3.1,8,7.5v6.7
		c0,0.4,0,0.5-0.4,0.5h-14.9v1.4c0,2.6,0.5,2.8,2.8,2.8H655L654.9,145.6z M650.7,130.8c0-3.2-1-3.6-3.2-3.6h-2.7
		c-2.3,0-3.5,0.2-3.5,3.6v2l9.4-0.1V130.8z"/>
	<path class="st0" d="M673.5,122.5h6.2v2c1.8-1,4.2-2.2,6.2-2.2h2.6v5.5h-3.6c-1.6,0-3.4,0.5-5.2,1.3v17h-6.2V122.5z"/>
	<path class="st0" d="M718.7,146.2h-9c-0.6,0-0.8-0.2-1-0.8c-0.7-2.2-6.7-22.9-6.7-22.9h6.9l4.8,18.2h0.8l4.8-18.2h6.9
		c0,0-6,20.7-6.6,22.9C719.6,146,719.3,146.2,718.7,146.2z"/>
	<path class="st0" d="M744.8,112.8c1.8,0,3.3,1.4,3.3,3.2c0,1.8-1.5,3.2-3.3,3.2c-1.8,0-3.2-1.4-3.2-3.2
		C741.5,114.2,743,112.8,744.8,112.8z M747.8,146.1h-6.2v-23.6h6.2V146.1z"/>
	<path class="st0" d="M784,145.6c0,0-4.5,0.7-11,0.7c-5.3,0-8-1.7-8-7.5v-9c0-5.8,2.7-7.5,8-7.5c6.6,0,11,0.4,11,0.4v4.8h-10
		c-2,0-2.8,0.7-2.8,2.8v8.2c0,2,0.9,2.8,2.8,2.8h10V145.6z"/>
	<path class="st0" d="M819.8,145.6c0,0-5.3,0.7-11.8,0.7c-5.3,0-8-1.4-8-7.2V130c0-4.4,3-7.5,8.3-7.5h5.2c5.3,0,8,3.1,8,7.5v6.7
		c0,0.4,0,0.5-0.4,0.5h-14.9v1.4c0,2.6,0.5,2.8,2.8,2.8h10.9L819.8,145.6z M815.5,130.8c0-3.2-1-3.6-3.2-3.6h-2.7
		c-2.3,0-3.5,0.2-3.5,3.6v2l9.4-0.1V130.8z"/>
	<path class="st0" d="M856,127.3h-10.3c-1.6,0-2.3,0-2.3,1v0.7c0,1,0.3,1.1,1,1.2l6.3,1.1c4.4,0.8,6.9,1.2,6.9,6v1.7
		c0,5.3-2.8,7.2-8.2,7.1c-6.6,0-12.4-0.7-12.4-0.7l0-4.5h11.2c2.5,0,3.5-0.5,3.5-2.1v-0.8c0-0.8-0.2-1.2-2.1-1.6l-8.1-1.5
		c-2.8-0.6-4.3-1.4-4.3-5.1v-1.7c0-5.3,2.7-6.2,8-6.2c6.5,0,10.7,0.4,10.7,0.4V127.3z"/>
</g>
<g>
	<path class="st0" d="M26.5,9.8c1.7,0,3.1,0,4.6,0c10.2,0,20.4,0,30.6,0c1.5,0,2.7,0.4,3.9,1.2c11.7,7.8,23.5,15.5,35.2,23.2
		c5.8,3.8,11.6,7.7,17.4,11.5c1.1,0.8,2,0.9,3.2,0.1c17.2-11.4,34.5-22.8,51.7-34.3c1.9-1.3,3.7-1.8,6-1.8c10.4,0.1,20.8,0,31.2,0
		c0.4,0,0.9,0,1.3,0c0.4,0,0.8-0.1,1,0.4c0.2,0.5-0.2,0.8-0.6,1.1c-2.5,1.8-5,3.7-7.5,5.5c-8.3,5.9-16.6,11.9-24.9,17.8
		c-11.1,7.9-22.4,15.7-33.4,23.7c-7.9,5.8-16.1,11.3-23.9,17.3c-1.7,1.3-2.9,1.3-4.7,0C99.7,62.8,81.8,50,63.9,37.2
		c-12-8.6-24-17.1-36-25.7C27.5,11.2,26.9,10.9,26.5,9.8z"/>
	<path class="st1" d="M233.4,61.1c-31.9,29.6-63.7,59.3-95.6,88.9c-0.1,0-0.2-0.1-0.2-0.1c0.9-1.7,1.8-3.4,2.7-5.1
		c11.5-19.8,23.1-39.7,34.6-59.5c1.1-1.9,0.1-1.9-1.3-1.8c-11.4,0-22.8,0-34.1,0c-2.4,0-2.4-0.1-1.3-2.1c3.5-6,6.9-12,10.4-17.9
		c0.4-0.7,0.9-1.3,1.6-1.8c20.7-14.8,41.3-29.5,62-44.3c0.3-0.2,0.6-0.3,0.9-0.5c0.4,0.8-0.2,1.2-0.4,1.6
		c-7.6,13.3-15.3,26.7-22.9,40c-1.2,2-1.2,2,1.2,2c13.5,0,27.1,0,40.6,0c0.5,0,1,0,1.5,0C233.3,60.7,233.4,60.9,233.4,61.1z"/>
	<path class="st1" d="M100.6,148.6c-6-5.6-12-11.1-18-16.7C58,109.1,33.3,86.1,8.7,63.2c-0.7-0.7-1.5-1.4-2.2-2.1
		c0.8-0.8,1.6-0.5,2.3-0.5c13.3,0,26.6,0,39.9,0c2.4,0,2.5,0,1.2-2.2C42.3,45.2,34.8,32,27.2,18.8c-0.3-0.4-0.6-0.8-0.6-1.4l0,0
		c0.7-0.4,1,0.3,1.5,0.6c20.3,14.5,40.6,29,61,43.5c0.7,0.5,1.3,1,1.7,1.7c3.7,6.4,7.4,12.8,11.2,19.3c0.1,0.2,0.1,0.4,0.2,0.6
		c-0.5,0.6-1.1,0.3-1.7,0.3c-11.5,0-23,0-34.6,0c-1.6,0-2.2,0.1-1.2,1.9c11.6,20,23.2,40.1,34.8,60.2c0.5,0.9,1,1.8,1.4,2.8
		C100.8,148.4,100.7,148.5,100.6,148.6z"/>
</g>
<g>
</g>
<g>
</g>
<g>
</g>
<g>
</g>
<g>
</g>
<g>
</g>
</svg>
