<?xml version="1.0" encoding="utf-8"?>
<!-- Generator: Adobe Illustrator 27.8.0, SVG Export Plug-In . SVG Version: 6.00 Build 0)  -->
<svg version="1.1" id="Layer_1" xmlns="http://www.w3.org/2000/svg" xmlns:xlink="http://www.w3.org/1999/xlink" x="0px" y="0px"
	 width="882.8px" height="172.9px" viewBox="0 0 882.8 172.9" style="enable-background:new 0 0 882.8 172.9;" xml:space="preserve"
	>
<style type="text/css">
	.st0{fill:#F07E19;}
	.st1{fill:#99CC66;}
</style>
<g>
	<path class="st0" d="M338.2,22c0,0,0.2-1.1,1.6-1.1h29.1v79.6h-23.7V61.9H344l-11.4,37c0,0-0.3,1.6-1.9,1.6h-17.7
		c-1.6,0-1.8-1.6-1.8-1.6l-11.5-37h-1.3v38.6h-23.7V20.8H304c1.3,0,1.5,1.1,1.5,1.1l16,42.3h0.7L338.2,22z"/>
	<path class="st0" d="M418.1,33.2c15.8,0,23.8,4,23.7,20.8v46.4h-22.9v-4.2c-5,2.6-10.9,4.9-15.6,4.9h-2.6
		c-15.2-0.1-22.9,1.1-22.9-20.8v-5.8c0-16.9,7.6-17.7,22.9-17.7h3.5c6.6,0,9.2,0.9,14.7,2.3v-3.8c-0.2-4.4-1.8-5.7-6.6-5.7h-27.6
		l-0.1-14.3C384.5,35.3,399.1,33.2,418.1,33.2z M407.6,70.4h-2.5c-3.2,0-4.5,1-4.5,4.3v6.6c0,3,1.5,4.2,4.5,4.2h1.9
		c3.2,0,6.7-1,11.8-1.8V71.6C413.7,70.9,410.8,70.4,407.6,70.4z"/>
	<path class="st0" d="M498.1,68.4l19.6,32.1h-26l-9.9-17.6h-0.2l-9.9,17.6h-26l18.5-32.1l-17.9-34.5H472l9.4,18.2h0.5l9.4-18.2H517
		L498.1,68.4z"/>
	<path class="st0" d="M516.2,53h40.2v19.5h-40.2V53z"/>
	<path class="st0" d="M613,20.8h26.6c0,0-18.5,68.6-20.6,76.2c-0.9,3.3-2.2,3.8-4,3.8h-33.2c-1.8,0-3-0.5-3.9-3.8
		c-2.2-7.6-20.7-76.2-20.7-76.2h26.6l13.9,56.5h1.4L613,20.8z"/>
	<path class="st0" d="M705.4,54.3v25.4c0,16.8-7.8,21.5-23.8,21.5h-18.4c-15.8,0-23.7-4.7-23.7-21.5V54.3c0-16.7,7.8-21.4,23.7-21.4
		h18.4C697.5,32.9,705.4,37.6,705.4,54.3z M682.5,79.7V54.2c0-3-1.6-4.3-4.7-4.3h-10.9c-3,0-4.5,1.4-4.5,4.3v25.5
		c0,3,1.6,4.4,4.5,4.4h10.9C680.9,84.1,682.5,82.6,682.5,79.7z"/>
	<path class="st0" d="M737.1,100.5h-22.9V16.4h22.9V100.5z"/>
	<path class="st0" d="M743.5,33.8h8.9v-13h22.9v13h16.8v18.1h-16.8v27.9c0,2.4,1.3,3.8,3.9,3.8c0.3,0,13.8-0.1,13.8-0.1L792.6,98
		c0,0-13.9,3.1-22.4,3.1c-15.4,0-17.9-9.7-17.9-20.4V51.9h-8.9V33.8z"/>
	<path class="st0" d="M855.4,50.3h-30.7c-1.7,0-2.4,0-2.4,1.3v1.4c0,1.6,1.1,1.7,1.7,1.8l12.6,2.3c14.9,2.5,22.5,3.2,22.5,18.9v3.2
		c0,16.4-8,22.1-23.9,22.1c-18.9,0-36.9-2.5-36.9-2.5l0.1-15.5h31.4c5,0,6.7-0.3,6.7-3v-1.5c0-1.4-1.6-1.7-9.4-3.2
		c-4.6-0.8-10.6-1.7-14.6-2.5c-8.4-1.8-13.2-4.6-13.2-15.7V52c0-16.4,7.8-18.8,23.7-18.8c18.9,0,32.3,1.5,32.3,1.5V50.3z"/>
</g>
<g>
	<path class="st0" d="M265.1,123.4h19.8v4.5h-14.7v7h12.9v4.6h-12.9v7.2h14.7v4.7h-19.8V123.4z"/>
	<path class="st0" d="M307.2,151.4h-5V122h5V151.4z"/>
	<path class="st0" d="M343.1,151.1c0,0-4.9,0.5-11.1,0.5c-5,0-7.5-1.3-7.5-6.8v-9c0-4.4,2.9-7.2,7.9-7.2h4.8c5,0,7.6,2.8,7.6,7.2
		v6.5c0,0.4,0,0.5-0.4,0.5h-15v1.4c0,3.2,0.5,3.3,3.3,3.3h10.4L343.1,151.1z M339.8,136.8c0-3.9-1.1-4.2-3.6-4.2h-2.7
		c-2.6,0-4,0.2-4,4.2v2.1l10.4-0.1V136.8z"/>
	<path class="st0" d="M379.1,151.1c0,0-4.1,0.5-10.3,0.5c-5,0-7.5-1.7-7.5-7.2v-8.7c0-5.5,2.5-7.3,7.5-7.2c6.2,0,10.3,0.3,10.3,0.3
		v4h-9.5c-2.4,0-3.3,0.8-3.3,3.2v8c0,2.4,1,3.2,3.3,3.2h9.5V151.1z"/>
	<path class="st0" d="M393.7,128.6h3.2v-5.2h5v5.2h6.3v4.3h-6.3v11.9c0,1.8,0.6,2.4,2.2,2.4c0.5,0,4.4-0.1,4.4-0.1l0,3.7
		c0,0-3.8,0.7-6.2,0.7c-4.4,0-5.3-2.6-5.3-6v-12.7h-3.2V128.6z"/>
	<path class="st0" d="M424.7,128.6h5v2.2c1.8-1,4.2-2.4,6.4-2.4h2.6v4.4h-3.4c-1.7,0-3.8,0.6-5.6,1.5v17.1h-5V128.6z"/>
	<path class="st0" d="M456.7,119.6c1.5,0,2.7,1.1,2.7,2.6c0,1.5-1.2,2.6-2.7,2.6c-1.5,0-2.7-1.1-2.7-2.6
		C454.1,120.8,455.3,119.6,456.7,119.6z M459.2,151.4h-5v-22.8h5V151.4z"/>
	<path class="st0" d="M494.3,151.1c0,0-4.1,0.5-10.3,0.5c-5,0-7.5-1.7-7.5-7.2v-8.7c0-5.5,2.5-7.3,7.5-7.2c6.2,0,10.3,0.3,10.3,0.3
		v4h-9.5c-2.4,0-3.3,0.8-3.3,3.2v8c0,2.4,1,3.2,3.3,3.2h9.5V151.1z"/>
	<path class="st0" d="M522.1,128.4c5,0,8,1.1,8,6.6v16.4h-5v-1.8c-1.8,0.9-4.2,2-6.4,2h-1.5c-4.9,0-7.4-0.1-7.4-6.6v-2.2
		c0-5.6,2.5-6,7.4-6h2.7c2.5,0,3.3,0.3,5.2,0.8v-1.7c0-2.8-0.6-3.5-3.4-3.5l-9.6,0.1v-3.5C512.1,128.9,515.9,128.4,522.1,128.4z
		 M520.3,140.4h-2.4c-2.6,0-3.4,0.1-3.4,3.1v1.2c0,2.4,1,3,3.4,3h1.6c1.7,0,3.8-0.9,5.6-1.4v-5.6C523.3,140.5,522,140.4,520.3,140.4
		z"/>
	<path class="st0" d="M552.4,151.4h-5V122h5V151.4z"/>
	<path class="st0" d="M611.2,128h-12.2c-2.7,0-3.3,0.2-3.3,2.5v0.8c0,1.2,0.4,1.5,2,1.8c0,0,8.2,1.5,10.1,1.9c4,0.8,5.1,2.3,5.1,5.8
		v3.6c0,5-2.1,7.1-8.6,7c-6.4,0-13.8-0.4-13.8-0.4l0-4.4h13.2c3.2,0,4.1-0.5,4.1-3.1v-2.1c0-1-0.3-1.8-1.7-2
		c-1.9-0.4-7.9-1.5-9.2-1.7c-4.3-0.8-6.4-1.2-6.4-5.4v-2.4c0-5,2.2-6.9,8.7-6.8c6.4,0,12,0.4,12,0.4L611.2,128z"/>
	<path class="st0" d="M647.7,151.1c0,0-4.9,0.5-11.1,0.5c-5,0-7.5-1.3-7.5-6.8v-9c0-4.4,2.9-7.2,7.9-7.2h4.8c5,0,7.6,2.8,7.6,7.2
		v6.5c0,0.4,0,0.5-0.4,0.5h-15v1.4c0,3.2,0.5,3.3,3.3,3.3h10.4L647.7,151.1z M644.5,136.8c0-3.9-1.1-4.2-3.6-4.2h-2.7
		c-2.6,0-4,0.2-4,4.2v2.1l10.4-0.1V136.8z"/>
	<path class="st0" d="M666.4,128.6h5v2.2c1.8-1,4.2-2.4,6.4-2.4h2.6v4.4h-3.4c-1.7,0-3.8,0.6-5.6,1.5v17.1h-5V128.6z"/>
	<path class="st0" d="M708.9,151.5h-7.6c-0.5,0-0.7-0.2-0.9-0.7c-0.6-1.8-6.6-22.2-6.6-22.2h5.3l5.2,18.5h1.6l5.1-18.5h5.4
		c0,0-6.1,20.4-6.6,22.2C709.6,151.4,709.4,151.5,708.9,151.5z"/>
	<path class="st0" d="M734.3,119.6c1.5,0,2.7,1.1,2.7,2.6c0,1.5-1.2,2.6-2.7,2.6c-1.5,0-2.7-1.1-2.7-2.6
		C731.6,120.8,732.8,119.6,734.3,119.6z M736.7,151.4h-5v-22.8h5V151.4z"/>
	<path class="st0" d="M771.8,151.1c0,0-4.1,0.5-10.3,0.5c-5,0-7.5-1.7-7.5-7.2v-8.7c0-5.5,2.5-7.3,7.5-7.2c6.2,0,10.3,0.3,10.3,0.3
		v4h-9.5c-2.4,0-3.3,0.8-3.3,3.2v8c0,2.4,1,3.2,3.3,3.2h9.5V151.1z"/>
	<path class="st0" d="M806.2,151.1c0,0-4.9,0.5-11.1,0.5c-5,0-7.5-1.3-7.5-6.8v-9c0-4.4,2.9-7.2,7.9-7.2h4.8c5,0,7.6,2.8,7.6,7.2
		v6.5c0,0.4,0,0.5-0.4,0.5h-15v1.4c0,3.2,0.5,3.3,3.3,3.3h10.4L806.2,151.1z M803,136.8c0-3.9-1.1-4.2-3.6-4.2h-2.7
		c-2.6,0-4,0.2-4,4.2v2.1l10.4-0.1V136.8z"/>
	<path class="st0" d="M831.5,132.8c-2.1,0-2.9,0-2.9,1.2v0.9c0,1.2,0.3,1.3,1.2,1.4l7,1.3c3.8,0.8,6.1,1.2,6.1,5.5v1.9
		c0,4.9-2.8,6.6-7.8,6.6c-6.2,0-11.6-0.5-11.6-0.5l0-3.8h10.9c2.8,0,3.9-0.6,3.9-2.5v-0.9c0-0.9,0-1.5-1.4-1.7
		c-2.3-0.4-7-1.1-9.3-1.5c-2.7-0.5-4-1.2-4-4.7v-1.8c0-4.9,2.5-5.8,7.6-5.7c6.2,0,10,0.3,10,0.3v4H831.5z"/>
</g>
<g>
	<path class="st0" d="M35.9,14.8c1.7,0,3.3,0,4.8,0c10.6,0,21.1,0,31.7,0c1.5,0,2.8,0.4,4.1,1.2C88.7,24,100.9,32,113,40
		c6,4,12,7.9,18,12c1.2,0.8,2.1,1,3.3,0.1c17.9-11.9,35.8-23.6,53.6-35.5c2-1.3,3.9-1.9,6.2-1.9c10.8,0.1,21.6,0,32.4,0
		c0.5,0,0.9,0,1.4,0c0.4,0,0.8-0.1,1,0.4c0.2,0.5-0.2,0.8-0.6,1.1c-2.6,1.9-5.2,3.8-7.8,5.7c-8.6,6.2-17.2,12.3-25.9,18.4
		c-11.6,8.2-23.2,16.2-34.7,24.6c-8.2,6.1-16.7,11.7-24.8,18c-1.7,1.3-3,1.3-4.8,0c-18.5-13.3-37.1-26.6-55.7-39.9
		c-12.4-8.9-24.9-17.8-37.3-26.6C36.9,16.2,36.3,15.9,35.9,14.8z"/>
	<path class="st1" d="M250.6,67.9c-33,30.8-66.1,61.5-99.1,92.3c-0.1,0-0.2-0.1-0.2-0.1c0.9-1.7,1.8-3.5,2.8-5.2
		c12-20.6,23.9-41.2,35.9-61.7c1.1-2,0.1-1.9-1.4-1.9c-11.8,0-23.6,0-35.4,0c-2.4,0-2.5-0.1-1.3-2.1c3.6-6.2,7.2-12.4,10.8-18.6
		c0.4-0.7,0.9-1.4,1.7-1.9c21.4-15.3,42.9-30.6,64.3-46c0.3-0.2,0.6-0.4,1-0.5c0.5,0.8-0.2,1.2-0.5,1.7
		c-7.9,13.8-15.9,27.7-23.8,41.5c-1.2,2.1-1.2,2.1,1.2,2.1c14,0,28.1,0,42.1,0c0.5,0,1.1,0,1.6,0C250.4,67.6,250.5,67.7,250.6,67.9z
		"/>
	<path class="st1" d="M112.8,158.8c-6.2-5.8-12.4-11.5-18.6-17.3C68.6,117.7,43,93.9,17.5,70.2c-0.8-0.7-1.5-1.4-2.3-2.2
		c0.9-0.8,1.7-0.5,2.4-0.5c13.8,0,27.6,0,41.4,0c2.5,0,2.5,0,1.3-2.3c-7.8-13.7-15.7-27.4-23.5-41.1c-0.3-0.5-0.6-0.9-0.6-1.4l0,0
		c0.8-0.4,1.1,0.3,1.5,0.7c21.1,15,42.2,30.1,63.2,45.1c0.7,0.5,1.3,1,1.8,1.8c3.9,6.7,7.7,13.3,11.6,20c0.1,0.2,0.1,0.4,0.2,0.6
		c-0.5,0.6-1.2,0.3-1.7,0.3c-12,0-23.9,0-35.9,0c-1.7,0-2.3,0.1-1.2,2c12.1,20.8,24.1,41.6,36.1,62.4c0.5,0.9,1,1.9,1.5,2.9
		C113,158.5,112.9,158.6,112.8,158.8z"/>
</g>
<g>
</g>
<g>
</g>
<g>
</g>
<g>
</g>
<g>
</g>
<g>
</g>
</svg>
