<?xml version="1.0" encoding="utf-8"?>
<!-- Generator: Adobe Illustrator 27.8.0, SVG Export Plug-In . SVG Version: 6.00 Build 0)  -->
<svg version="1.1" id="Layer_2_00000026855452736607240570000004412280181183878322_"
	 xmlns="http://www.w3.org/2000/svg" xmlns:xlink="http://www.w3.org/1999/xlink" x="0px" y="0px" width="92.6px" height="149.9px"
	 viewBox="0 0 92.6 149.9" style="enable-background:new 0 0 92.6 149.9;" xml:space="preserve">
<style type="text/css">
	.st0{fill:#99CC66;stroke:#99CC66;stroke-width:2;stroke-miterlimit:10;}
</style>
<g id="Layer_1-2">
	<path class="st0" d="M92.5,149.9l-2-0.3c0.4-2.9-3.6-6.2-10.8-9c-11.5,4.3-29,6.8-48.1,6.9h-0.2c-16.8,0-28.7-2.5-31-6.6
		c-0.6-1-0.6-2.1,0-3.1c2.4-4.1,14.4-6.4,31.2-6.1c20.2,0.4,37.2,2.8,48,6.9l0,0c4.5-1.4,8-5.1,8.1-8.6c0.1-3.8-3.5-7.2-10-9.6l0,0
		h-0.1c-10.8,4.3-27.2,6.8-45.1,6.8h-0.2c-15.7,0-26.8-2.5-29.1-6.6c-0.6-1.1-0.6-2.2,0-3.3c2.4-4,13.6-6.3,29.3-6
		c18.9,0.3,34.9,2.8,45,6.8c4.8-2.8,7.2-6.1,7.1-9.4c-0.2-3.7-3.6-7.5-8.8-9.9c-10.2,4.3-25.6,6.8-42.5,6.8h-0.2
		c-14.7,0-25.2-2.5-27.5-6.5C5,98,5,96.8,5.6,95.7c2.3-4,12.9-6.2,27.6-5.9C51,90.1,66,92.6,75.6,96.6c4.5-2.4,6.9-5.5,6.9-8.8
		c-0.1-3.9-3.4-7.8-8.9-10.5C64.3,81.5,49.8,84,34,84h-0.2c-13.6,0-23.5-2.4-25.7-6.4c-0.7-1.2-0.7-2.4,0-3.6
		c2.3-3.9,12.2-6.1,25.9-5.9C50.7,68.6,64.8,71,73.8,75c4.3-2.5,6.4-5.3,6.2-8.1c-0.2-3.4-3.9-6.5-7.6-8.1c-9,3.4-22.7,5.3-37.7,5.3
		h-0.2c-13.2,0-22.6-2-24.5-5.3c-0.5-0.9-0.5-1.8,0-2.7c1.9-3.2,11.4-5.1,24.7-4.9c15.8,0.3,29.2,2.2,37.7,5.3h0.1
		c3.4-1.1,6-3.9,6.1-6.5c0.1-2.8-2.6-5.4-7.6-7.3l0,0h-0.1C62.4,46.1,49.6,48,35.5,48h-0.2c-12.4,0-21.2-2-23-5.2
		c-0.5-0.9-0.5-1.9,0-2.8c1.9-3.2,10.6-5,23.2-4.8c14.8,0.3,27.3,2.2,35.3,5.3c3.6-2.2,5.5-4.6,5.3-7.1c-0.1-2.7-2.8-5.7-6.7-7.6
		c-8,3.4-20.1,5.3-33.3,5.3H36c-11.7,0-19.8-1.9-21.7-5.2c-0.5-0.9-0.5-2,0-2.9c1.9-3.2,10.1-5,21.8-4.8c13.9,0.3,25.7,2.2,33.2,5.3
		c3.4-1.8,5.2-4.2,5.2-6.7c0-2.9-2.6-5.9-6.8-8c-7.5,3.4-18.8,5.3-31.2,5.3h-0.2c-10.9,0-18.5-1.9-20.4-5.1c-0.6-1-0.6-2,0-3
		c1.9-3.2,9.6-4.9,20.5-4.7c13.1,0.3,24.1,2.2,31.2,5.3c4.3-2.1,6.7-4.5,6.7-6.9h2c0,2.9-2.2,5.7-6.5,8c4.1,2.4,6.5,5.7,6.6,9.1
		c0,3-1.7,5.6-5,7.8c4,2.2,6.4,5.4,6.6,8.6c0.1,2.1-0.8,5.1-5.1,8.1c6.6,2.9,7.6,6.6,7.5,8.6c-0.1,3.3-2.7,6.1-5.7,7.6
		c3.4,1.9,6.8,5,7.1,9c0.2,3.3-1.8,6.4-6.2,9.3c5.5,3,8.8,7.3,8.8,11.7c0.1,3.8-2.3,7.2-6.7,9.9c4.3,2.3,8.4,6.2,8.7,11
		c0.1,2.7-1,6.6-6.8,10.4c8.7,3.7,10,8.4,9.9,11c-0.1,4.2-3.5,7.8-7.4,9.7C89.5,142.8,93,146.3,92.5,149.9L92.5,149.9z M28.9,133.7
		c-16.2,0-25.2,2.6-26.7,5.1c-0.2,0.4-0.2,0.7,0,1.1c1.5,2.7,11.4,5.6,29.3,5.6h0.2c17.7,0,33.9-2.2,45.1-5.9
		c-10.6-3.5-26.5-5.6-45.1-5.9C30.7,133.7,29.8,133.7,28.9,133.7L28.9,133.7z M29.9,113.3c-15.1,0-23.5,2.6-25,5.1
		c-0.3,0.4-0.3,0.8,0,1.3c1.5,2.7,10.8,5.5,27.4,5.5h0.2c16.3,0,31.9-2.2,42.3-5.9c-10-3.5-24.8-5.6-42.3-5.9
		C31.7,113.3,30.8,113.3,29.9,113.3z M30.7,91.7c-15.9,0-22.1,3.1-23.3,5c-0.3,0.5-0.3,0.9,0,1.4c1.2,2,7.9,5.5,25.7,5.5h0.2
		c15.4,0,30-2.2,39.8-5.9c-9.4-3.5-23.4-5.6-39.8-5.9C32.4,91.7,31.6,91.7,30.7,91.7L30.7,91.7z M31.6,70.2c-13,0-20.3,2.4-21.8,4.9
		c-0.3,0.5-0.3,1,0,1.6c1.5,2.7,9.6,5.4,24,5.4H34c14.4,0,28.1-2.2,37.3-5.9c-8.8-3.5-21.9-5.6-37.3-5.9
		C33.2,70.2,32.4,70.2,31.6,70.2L31.6,70.2z M32.5,53.3c-14.4,0-19.8,2.5-20.6,3.9c-0.1,0.2-0.1,0.4,0,0.7c0.9,1.5,6.7,4.3,22.8,4.3
		h0.2c13.3,0,25.9-1.7,34.6-4.4c-8.3-2.6-20.4-4.2-34.7-4.4C34,53.3,33.2,53.3,32.5,53.3L32.5,53.3z M33.4,37.3
		c-13.4,0-18.5,2.5-19.3,3.9c-0.2,0.3-0.2,0.5,0,0.8c0.8,1.5,6.4,4.3,21.5,4.2c12.5,0,24.3-1.7,32.5-4.4c-7.8-2.6-19.2-4.2-32.5-4.4
		C34.8,37.3,34.1,37.3,33.4,37.3L33.4,37.3z M34.2,20.4c-10.9,0-17,1.9-18.2,3.8c-0.2,0.3-0.2,0.6,0,0.9c1.1,2,7.9,4.2,20,4.2h0.2
		c11.7,0,22.9-1.6,30.6-4.4c-7.3-2.6-18-4.2-30.6-4.4C35.5,20.5,34.8,20.4,34.2,20.4L34.2,20.4z M34.8,3.6c-10.1,0-15.8,1.9-17,3.7
		c-0.2,0.3-0.2,0.6,0,1c1.1,2,7.4,4.1,18.6,4.1h0.1c11,0,21.5-1.6,28.6-4.4c-6.8-2.6-16.9-4.2-28.7-4.4C36,3.6,35.4,3.6,34.8,3.6z"
		/>
</g>
</svg>
